<svg xmlns="http://www.w3.org/2000/svg" viewBox="0 0 252.75 445.68"><defs><style>.cls-1{fill:#f7460f;}.cls-2{fill:#fff;}</style></defs><g id="レイヤー_2" data-name="レイヤー 2"><g id="レイヤー_1-2" data-name="レイヤー 1"><rect class="cls-1" width="54.74" height="128.51" rx="11.85"/><rect class="cls-1" x="58.27" width="54.74" height="128.51" rx="11.85"/><rect class="cls-1" x="115.94" y="132.15" width="81.17" height="118.48" rx="11.85"/><rect class="cls-1" x="115.95" y="253.37" width="136.51" height="80.2" rx="11.85"/><rect class="cls-1" x="115.95" y="365.47" width="51.75" height="80.2" rx="11.85"/><path class="cls-1" d="M252.71,11.85A11.84,11.84,0,0,0,240.86,0H127.54a11.85,11.85,0,0,0-11.85,11.85V116.66a11.86,11.86,0,0,0,11.85,11.85H185a11.85,11.85,0,0,0,11.85-11.85V71.09a11.86,11.86,0,0,1,11.85-11.85h32.15a11.84,11.84,0,0,0,11.85-11.85Z"/><rect class="cls-1" x="200.51" y="61.98" width="52.24" height="91.14" rx="11.85"/><rect class="cls-1" x="200.51" y="156.76" width="52.24" height="93.87" rx="11.85"/><path class="cls-2" d="M32.24,54.32a18.91,18.91,0,0,0,6.08,2.58L36.78,59a16.45,16.45,0,0,1-8-4.69,12.68,12.68,0,0,1-2.61-4.42H23v6.46q2.85-.51,6.06-1.38l.16,2.12a93.68,93.68,0,0,1-10.42,2.35l-.79-2.31,2.46-.33V49.9H16.6V48h3.91V38.43H35.89V40.3H23v1.32H34.86v1.81H23v1.34H34.86v1.76H23V48H38.23V49.9h-3L37,51.42A39.51,39.51,0,0,1,32.24,54.32ZM30.64,53a34.21,34.21,0,0,0,4.3-3.1H28.46A9.36,9.36,0,0,0,30.64,53Z"/><path class="cls-2" d="M36.33,73.8v9A2.34,2.34,0,0,1,36,84.24a2.36,2.36,0,0,1-1.88.56,27,27,0,0,1-2.9-.16l-.46-2.21a16.61,16.61,0,0,0,2.64.28c.31,0,.51-.06.58-.18A1.18,1.18,0,0,0,34,82V73.8H24.72v7H18.85v1.9h-2V67.12h1.86V78.69h1.1V63.47h1.93V78.69h1.15V67.12h1.78v4.67H38.31v2Zm-4.49-6.47A47.89,47.89,0,0,1,37.33,70l-1.45,1.66c-1.38-.9-3-1.84-4.83-2.8a7.81,7.81,0,0,1-4.61,2.86L25.26,70q3.34-.74,4.3-2.8h-4.4V65.27h4.67v-2h2.22v2h5.33v1.94h-5.5A.56.56,0,0,1,31.84,67.33Zm.82,8v6H27.9v1.07h-2v-7ZM27.85,77.2v2.31h2.92V77.2Z"/><path class="cls-2" d="M79.84,53.13a23.26,23.26,0,0,0,3.79-5.92,24.89,24.89,0,0,0,1.31-3.74h-3.8V41.26h4.32c.29-1.41.51-2.63.65-3.68l2.42.37c-.15,1-.34,2.13-.59,3.31h8.27v2.21H87.42l-.08.28a32.41,32.41,0,0,1-1.51,4.44H95.3v2.09H90.6v6h6v2.22H81.82V56.25h6.32v-6H84.8a22.07,22.07,0,0,1-3.48,4.83l-1.48-1.78V59.4H77.47V47.94a32.8,32.8,0,0,1-1.8,2.77l-1.11-2.48a25.89,25.89,0,0,0,3.09-5.94q.73-1.93,1.54-4.75l2.37.59a50.07,50.07,0,0,1-1.72,5Z"/><path class="cls-2" d="M83.74,66.35H81.28C80.71,68.44,79,70,76,71.11L74.7,69.38c2.23-.57,3.62-1.57,4.19-3H75.48V64.59h3.74l.13-1.37H81.7l-.13,1.37H86a22.74,22.74,0,0,1-.47,4.21,1.84,1.84,0,0,1-1,1.22,3.82,3.82,0,0,1-1.42.2,16.83,16.83,0,0,1-2.24-.16l-.3-1.75a11.52,11.52,0,0,0,1.83.2c.49,0,.8-.11.93-.32a4.09,4.09,0,0,0,.24-1ZM77.42,71H94.09V80.9H89.68a43.38,43.38,0,0,1,6.76,2.2L94.8,85a60.78,60.78,0,0,0-7.29-2.72l1.12-1.33H82.35l1.46,1.26a35,35,0,0,1-7.31,3l-1.5-2a29.08,29.08,0,0,0,6.68-2.2H77.42Zm14.22,1.55H79.85v1.19H91.64ZM79.85,75.27v1.24H91.64V75.27Zm0,2.74v1.28H91.64V78ZM95.53,64.27v5.84H87.1V64.27Zm-6.26,1.78v2.3h4v-2.3Z"/><path class="cls-2" d="M228.56,89.45A18.52,18.52,0,0,0,231.48,95a19.53,19.53,0,0,0,6.43,5.68L236.32,103a21.15,21.15,0,0,1-6.74-6.31,21.93,21.93,0,0,1-2.34-4.35,16.67,16.67,0,0,1-2.73,5.42,16.47,16.47,0,0,1-6.7,5.32l-1.57-2A15.29,15.29,0,0,0,223,95.62a13.89,13.89,0,0,0,2.56-6.17h-8.88V87h9V81.68h2.57V87h9.17v2.41Z"/><path class="cls-2" d="M226.81,117.69a15.12,15.12,0,0,1-1.57,5.83,11.85,11.85,0,0,1-6.31,5.1l-1.57-2.08a9.63,9.63,0,0,0,4.87-3.1,10.57,10.57,0,0,0,2-5.75h-3.9v-1.61a22,22,0,0,1-2.73,2.39L216,116.54a18.14,18.14,0,0,0,6.93-9.39l2.37.85a23,23,0,0,1-4.4,7.47H233.6a27.13,27.13,0,0,1-5.54-7.58l2.26-.92a20.41,20.41,0,0,0,7.7,8.68l-1.48,2.19a27.8,27.8,0,0,1-2.6-2.06v.46c-.09,3.85-.29,6.92-.58,9.22a3.37,3.37,0,0,1-1,2.4,4.6,4.6,0,0,1-2.53.51c-.92,0-2-.05-3.39-.14l-.45-2.34a25.37,25.37,0,0,0,3.3.24,1.94,1.94,0,0,0,1.16-.24,2.41,2.41,0,0,0,.45-1.29,50,50,0,0,0,.51-6.91Z"/><path class="cls-2" d="M228.15,181.23h9.09v4.92h-2.46v-3H219.17v3h-2.41v-4.92h9V179h2.43Zm5.7,3.74v6h-5.91a12.68,12.68,0,0,1-.76,2h8.88v7.64h-2.57v-1.14h-13v1.14H218V193h6.62c.35-1,.57-1.62.66-2H220v-6Zm-13.31,9.9v2.69h13v-2.69Zm2-8.1v2.38h8.83v-2.38Z"/><path class="cls-2" d="M235.93,215.06v9a2.34,2.34,0,0,1-.37,1.47,2.38,2.38,0,0,1-1.88.56c-.92,0-1.89-.06-2.9-.16l-.46-2.21A16.32,16.32,0,0,0,233,224c.31,0,.5-.06.58-.17a1.21,1.21,0,0,0,.09-.56v-8.18h-9.32v7h-5.86V224h-2V208.39h1.87V220h1.09V204.74h1.94V220h1.14V208.39h1.78v4.67h13.6v2Zm-4.5-6.46a47.21,47.21,0,0,1,5.5,2.7L235.47,213a52.46,52.46,0,0,0-4.83-2.8A7.78,7.78,0,0,1,226,213l-1.18-1.74c2.22-.49,3.66-1.42,4.29-2.8h-4.39v-1.94h4.67v-2h2.22v2H237v1.94h-5.49A.51.51,0,0,1,231.43,208.6Zm.83,8v6H227.5v1.07h-2v-7Zm-4.81,1.83v2.31h2.92v-2.31Z"/><path class="cls-2" d="M142.54,62.11a25.16,25.16,0,0,1,2.77,2.22v-.9H158V73.94h-2.23V73h-8.18v.94h-2.26V64.62l-1.16,1.83c-.55-.65-1.08-1.23-1.61-1.75v9.24h-2.35V64.83c-.88,1-1.7,1.84-2.44,2.53l-1.16-2.11a23.07,23.07,0,0,0,5.65-7.18h-5.15V55.86h3V52.29h2.37v3.57h1.72l1,1.07a30.85,30.85,0,0,1-2.66,4.82ZM145,53.2h13.33v1.94H145Zm11.94,3.28v5.65H146.29V56.48Zm-9.35,8.75V67.3h3V65.23Zm0,3.78v2.15h3V69Zm1-10.81v2.24h6.08V58.2Zm7.22,9.1V65.23h-3.12V67.3Zm0,3.86V69h-3.12v2.15Z"/><path class="cls-2" d="M180.4,53.07V71.7a2,2,0,0,1-.6,1.62,3.3,3.3,0,0,1-2,.46c-.75,0-2-.06-3.84-.19l-.57-2.34a32.92,32.92,0,0,0,3.79.23c.42,0,.66-.07.74-.21a1.42,1.42,0,0,0,.08-.57V55.16H163.06V73.94h-2.42V53.07ZM174.07,68v-4.8h2.11V70h-9.27v1.5h-2.12V63.16h2.12V68h2.45V61.7h-5.7v-2h7.92a24.19,24.19,0,0,0,1.91-4.33l2.31.8a26.59,26.59,0,0,1-2,3.53h3.6v2h-5.92V68Zm-7.32-8.32a21.57,21.57,0,0,0-1.69-3.25l2.08-.89a17.88,17.88,0,0,1,1.75,3.21Z"/><path class="cls-2" d="M136.08,183.25a37.72,37.72,0,0,0,1.87-3.52l2.4.52a17.85,17.85,0,0,1-1.89,2.88c1.45-.09,2.65-.18,3.61-.27-.26-.31-.65-.73-1.15-1.26l1.63-1a20.21,20.21,0,0,1,3.29,3.71l-1.74,1.24c-.33-.49-.61-.9-.87-1.24q-4,.57-8.74.85l-.57-1.85,1.76,0Zm-2,17.05a14.1,14.1,0,0,0,2.56-4.24l2.4.87a14.28,14.28,0,0,1-2.52,4.76Zm10.08-14.42v7.88a1.66,1.66,0,0,1-.41,1.27,2.15,2.15,0,0,1-1.4.35,15.34,15.34,0,0,1-2.38-.19l-.39-1.81a11.92,11.92,0,0,0,1.89.2q.36,0,.42-.27a1,1,0,0,0,0-.32v-1h-4.11v3.49h-2.3v-9.64Zm-6.34,1.5v1h4.11v-1Zm0,2.35v1h4.11v-1Zm4.09,11.81a36,36,0,0,0-1.11-4.5l2.54-.57a27.46,27.46,0,0,1,1.23,4.44Zm5.76-.33a23.05,23.05,0,0,0-1.87-4.26l2.26-.78a20.82,20.82,0,0,1,2.11,4.17Zm.57-19a29.52,29.52,0,0,0,4.91-1.76l1.42,1.65a41.05,41.05,0,0,1-6.33,1.94v.7q0,.59.3.72a8.46,8.46,0,0,0,2.07.13,6.66,6.66,0,0,0,2.27-.2.74.74,0,0,0,.33-.6c0-.13.06-.6.11-1.4l2.11.69c0,1.54-.28,2.49-.8,2.85s-2,.58-4.35.58a11.2,11.2,0,0,1-3.53-.34,1.42,1.42,0,0,1-.82-1.48v-5.8h2.31Zm0,7.66a27.37,27.37,0,0,0,5.26-1.83l1.57,1.63a36,36,0,0,1-6.83,2v.9a.57.57,0,0,0,.39.6,8.61,8.61,0,0,0,1.88.12,13.14,13.14,0,0,0,2.31-.13.81.81,0,0,0,.67-.7,11.86,11.86,0,0,0,.12-1.41l2.13.72c0,1.54-.24,2.49-.66,2.87a2.6,2.6,0,0,1-1.36.49,26.09,26.09,0,0,1-3.18.15,13.17,13.17,0,0,1-3.77-.33,1.34,1.34,0,0,1-.84-1.42V188h2.31Zm5.37,11.37a23,23,0,0,0-2.73-4.42l2.18-1.08a22.92,22.92,0,0,1,3.11,4.36Z"/><path class="cls-2" d="M169.8,186.17a28.63,28.63,0,0,0,9,8.51l-1.58,2.15a31,31,0,0,1-8.28-8.61V195h4.56v2.2H169v4.34h-2.51V197.2h-4.26V195h4.31v-6.67a28.24,28.24,0,0,1-8,9l-1.62-2a27.87,27.87,0,0,0,8.7-9.2H157.5v-2.28h8.93v-4H169v4h9.08v2.28Z"/><path class="cls-2" d="M161.75,282.9h8.95v1.91h-6.34v2h5.54v5.84H153.29a47.62,47.62,0,0,1-.36,5.48,13.74,13.74,0,0,1-1.47,4.59l-2-1.66a13.91,13.91,0,0,0,1.33-4.89c.14-1.39.21-3.26.21-5.6V282.9h8.32v-1.85h2.47Zm-6.75,17v-6.65h2.33v1.87h4.21v1.91h-4.21v2.53c1.82-.3,3.27-.57,4.35-.82l.06,1.87a62.45,62.45,0,0,1-8.31,1.71l-.64-2.14C153.58,300.13,154.32,300,155,299.94Zm-1.69-15.13v2h3.3v-2Zm0,3.74v2.28h3.3v-2.28Zm5.58-3.74v2h3.19v-2Zm0,3.74v2.28h3.19v-2.28Zm5.81,7.06a20.22,20.22,0,0,0,4.17-1.91l1.48,1.8a31.56,31.56,0,0,1-5.65,2.08v1.69c0,.45.14.71.41.78a7.66,7.66,0,0,0,1.64.1c1,0,1.63-.1,1.81-.32a4.72,4.72,0,0,0,.36-2l0-.34,2.28.61c0,.09,0,.37-.07.82-.11,1.45-.43,2.38-1,2.8s-1.85.64-4,.64a8.43,8.43,0,0,1-3-.34,1.59,1.59,0,0,1-.82-1.62v-7.13h2.3Zm2.85-4.78v-2.28h-3.19v2.28Z"/><path class="cls-2" d="M172.51,300.69a9.32,9.32,0,0,0,4.69-1.64,4.38,4.38,0,0,0,1.64-2.5,13.43,13.43,0,0,0,.32-2.67h2.46q0,4.17-1.81,6.17T174,302.83Zm2.35-19.42h2.57v12.35h-2.57Zm17,.44v11.08H180.38V281.71Zm-9.11,2v2.54h6.68v-2.54Zm0,4.45v2.67h6.68v-2.67Zm1.74,5.65H187v5.51c0,.38.12.61.37.69a6.43,6.43,0,0,0,1.56.12,6.83,6.83,0,0,0,1.68-.13c.29-.1.48-.39.57-.88a13.27,13.27,0,0,0,.19-2.33l2.54.74c0,.28-.07.79-.13,1.52-.14,1.54-.48,2.51-1,2.89a2.84,2.84,0,0,1-1.34.39c-.81.07-1.8.1-3,.1a7.45,7.45,0,0,1-3.18-.43,1.89,1.89,0,0,1-.74-1.75Z"/><path class="cls-2" d="M203.49,282.74a17.89,17.89,0,0,0,.66-1.89l2.72.37c-.26.61-.5,1.12-.71,1.52h7.4V290H200.13v1.13h16.74v1.8H200.13v1.14h16a34.6,34.6,0,0,1-.64,6.87,2.11,2.11,0,0,1-1.22,1.5,5.21,5.21,0,0,1-1.93.27,16.46,16.46,0,0,1-2.5-.17l-.44-1.87H198.21v1.24h-2.39v-5.35h2.39v2.29H202v-3h-4.37v-13.1Zm-3.36,1.72v1.1h11v-1.1Zm0,2.69v1.21h11v-1.21Zm8.08,11.69v-2.29h2.31v3.87q.91.09,1.53.09c.51,0,.82-.15.95-.43a17.26,17.26,0,0,0,.58-4.24h-9.15v3Z"/><path class="cls-2" d="M134.24,392.46a28.54,28.54,0,0,0-3.76-3.68l1.71-1.71a21.85,21.85,0,0,1,3.85,3.54Zm-3.46,8.63a37.18,37.18,0,0,0,3.93-7.57l2,1.52A46.87,46.87,0,0,1,133,402.9ZM135,386.75a17.51,17.51,0,0,0-3.59-3.62l1.65-1.69a17.6,17.6,0,0,1,3.76,3.51Zm8.19-1.3V381.3h2.39v4.15h6v10.07h-6V403h-2.39v-7.44h-5.91V385.45Zm-3.61,2.22v5.66h3.61v-5.66Zm9.66,5.66v-5.66h-3.66v5.66Z"/><path class="cls-2" d="M130.3,425.72a24.27,24.27,0,0,0,.8-5.81l2,.29a27.48,27.48,0,0,1-.8,6.49Zm3-10.65a24.93,24.93,0,0,0-2.92-3.74l1.3-1.61.48.52.11.12a22.91,22.91,0,0,0,1.91-3.67l2,1a30.17,30.17,0,0,1-2.7,4.11c.4.52.77,1.06,1.12,1.6,1.1-1.55,2-2.92,2.75-4.12l1.7,1.2a52.51,52.51,0,0,1-4.76,6.16c1.12-.07,2-.14,2.7-.23-.17-.58-.35-1.13-.55-1.64l1.68-.61a23.21,23.21,0,0,1,1.23,4.21v-1.93h4.94v-1.26h-4.35V407.8H150.8v7.38h-4.54v1.26h5.19V424h-5.19v1.41c0,.4.11.63.34.7a6.59,6.59,0,0,0,1.64.11,3.4,3.4,0,0,0,1.92-.32c.18-.15.27-.75.28-1.79l2.05.59a6,6,0,0,1-.55,2.78,2.1,2.1,0,0,1-1.36.65,18.07,18.07,0,0,1-2.58.15,7.26,7.26,0,0,1-3.15-.4,1.76,1.76,0,0,1-.59-1.58V424h-4.94v-5.34l-1.71.73c-.08-.47-.15-.9-.24-1.29l-.85.14-.53.07v10.18h-2.17v-9.89l-.35,0c-.68.08-1.57.16-2.65.25l-.43-2,.9-.05.67,0C132.47,416.15,132.93,415.58,133.31,415.07Zm3.94,10.19c-.24-1.86-.53-3.55-.87-5.06l1.66-.48a38.68,38.68,0,0,1,1.06,4.69Zm7-7.3h-2.8v1.41h2.8Zm0,2.92h-2.8v1.49h2.8Zm0-11.49h-2.37v1.35h2.37Zm0,2.83h-2.37v1.41h2.37Zm2-2.83v1.35h2.47v-1.35Zm0,2.83v1.41h2.47v-1.41Zm0,5.74v1.41h3V418Zm0,2.92v1.49h3v-1.49Z"/></g></g></svg>