<svg xmlns="http://www.w3.org/2000/svg" viewBox="0 0 301.67 411.95"><defs><style>.cls-1{fill:#0ec149;}.cls-2{fill:#fff;}</style></defs><g id="レイヤー_2" data-name="レイヤー 2"><g id="レイヤー_1-2" data-name="レイヤー 1"><path class="cls-1" d="M54.68,120.31v4.55a11.84,11.84,0,0,1-11.84,11.85h-31A11.84,11.84,0,0,0,0,148.56v28.25a11.84,11.84,0,0,0,11.85,11.85h82a11.84,11.84,0,0,0,11.85-11.85v-56.5a11.84,11.84,0,0,0-11.85-11.85H66.53A11.85,11.85,0,0,0,54.68,120.31Z"/><rect class="cls-1" x="54.68" width="51.04" height="105.72" rx="11.85"/><rect class="cls-1" x="109.37" y="26.43" width="80.2" height="79.29" rx="11.85"/><path class="cls-1" d="M258.84,11.85v2.73A11.85,11.85,0,0,1,247,26.43H205.07a11.85,11.85,0,0,0-11.85,11.85V93.87a11.84,11.84,0,0,0,11.85,11.85H288a11.84,11.84,0,0,0,11.85-11.85v-82A11.84,11.84,0,0,0,288,0H270.69A11.84,11.84,0,0,0,258.84,11.85Z"/><rect class="cls-1" x="109.37" y="108.46" width="51.95" height="221.47" rx="11.85"/><rect class="cls-1" x="109.37" y="331.75" width="80.2" height="80.2" rx="11.85"/><path class="cls-1" d="M257.93,362.74V343.6a11.85,11.85,0,0,0-11.85-11.85H204.15a11.84,11.84,0,0,0-11.84,11.85v56.51A11.84,11.84,0,0,0,204.15,412h82.94a11.84,11.84,0,0,0,11.85-11.84V386.43a11.84,11.84,0,0,0-11.85-11.84H269.78A11.85,11.85,0,0,1,257.93,362.74Z"/><rect class="cls-1" x="219.65" y="262.48" width="82.03" height="67.44" rx="11.85"/><path class="cls-1" d="M259.75,120.31a11.85,11.85,0,0,0-11.85-11.85H176.81A11.85,11.85,0,0,0,165,120.31V318.08a11.86,11.86,0,0,0,11.85,11.85h28.26a11.85,11.85,0,0,0,11.84-11.85V271.6a11.85,11.85,0,0,1,11.85-11.85H247.9a11.86,11.86,0,0,0,11.85-11.85Z"/><path class="cls-2" d="M132.16,377.25a21.45,21.45,0,0,1-4.28,2.07l-1.39-1.8a16.44,16.44,0,0,0,6.91-3.9,1.23,1.23,0,0,1-.87-1.21v-3.57h2.37v2.44c0,.39.09.63.29.71a9.9,9.9,0,0,0,2.05.11,5.13,5.13,0,0,0,2.25-.24,2.78,2.78,0,0,0,.3-1.61l2.16.55a1.48,1.48,0,0,1,0,.21,3.85,3.85,0,0,1-.45,2.11,1.68,1.68,0,0,1-1.26.59,27.51,27.51,0,0,1-3.43.16H136c-.29.35-.57.66-.85.95h7.82l1,1a18.22,18.22,0,0,1-4.32,3.36,39.22,39.22,0,0,0,8,1.48l-1.42,2.18a38.68,38.68,0,0,1-9-2.4,32.83,32.83,0,0,1-9.89,2.74l-1.28-2a33.73,33.73,0,0,0,8.85-1.89A15.69,15.69,0,0,1,132.16,377.25Zm10.94-11.08h4v4.56h-2q.66,1,1.26,2.07L144.21,374a23.39,23.39,0,0,0-2.78-4.45l2-.94c.47.55.9,1.08,1.28,1.57V368h-7.39a17.46,17.46,0,0,1,2,2.52l-2,1.24a15.29,15.29,0,0,0-1.95-2.92l1.5-.84H128.9v2.73h-2.41v-4.56h3.8a13.74,13.74,0,0,0-.88-1.76l-1.66.08-.93-1.87a116.83,116.83,0,0,0,17.24-1.49l1.76,1.65q-1.6.27-3,.45l1.63.48A17.91,17.91,0,0,1,143.1,366.17Zm-15.5,7a14.93,14.93,0,0,0,2.05-4.24l2.17.63a13.78,13.78,0,0,1-2.13,4.8Zm8.3-7a15.8,15.8,0,0,0-1.12-2.13l-3,.23a10.26,10.26,0,0,1,1,1.9Zm1.36,12.14a2.78,2.78,0,0,0,.29-.15,17.53,17.53,0,0,0,2.59-1.66H134.2A17.47,17.47,0,0,0,137.26,378.31Zm3.42-12.14a23.4,23.4,0,0,0,1.34-2.82c-1.44.19-3.05.36-4.84.51a11,11,0,0,1,1.12,2.31Z"/><path class="cls-2" d="M156.2,366.06v4.17h3.64v2.15h-3.67c0,.73-.1,1.47-.2,2.21a32.6,32.6,0,0,1,4.19,4.2l-1.6,2.2a26.36,26.36,0,0,0-3.16-3.94,12,12,0,0,1-1.29,2.63,10.68,10.68,0,0,1-3.25,3.27l-1.71-2q4.28-2.57,4.65-8.61H149v-2.15h4.89v-4.17h-1.33a17,17,0,0,1-1.91,3.39L148.79,368a15.61,15.61,0,0,0,2.74-6.72l2.39.36c-.21.91-.41,1.66-.6,2.24h6.06v2.21Zm13.29-2.5V382h-2.4v-1.47H162.9v1.69h-2.37V363.56Zm-6.59,2.23v12.45h4.19V365.79Z"/><path class="cls-2" d="M76.48,36.34h12.7V48.42H86.61V46.88H75.9v1.54H73.37V40.19a34,34,0,0,1-3,2.61L69,40.67a20,20,0,0,0,5.19-5.29,22.84,22.84,0,0,0,2.59-5.09H70V28.07H90.65v2.22H79.55A29.92,29.92,0,0,1,76.48,36.34Zm-.58,2.17v6.16H86.61V38.51Z"/><path class="cls-2" d="M72.24,53.2h2.67v7.52a37.41,37.41,0,0,1-.52,7.13,12.18,12.18,0,0,1-1.66,4.09,15.76,15.76,0,0,1-1.14,1.5l-2.11-1.8A10.06,10.06,0,0,0,72,66a35.7,35.7,0,0,0,.27-4.9Zm7.06.35h2.59V71.66H79.3Zm7.31-.89h2.63v21H86.61Z"/><path class="cls-2" d="M142,205.22a18.5,18.5,0,0,0,5,3.05l-1.32,2.23a19.92,19.92,0,0,1-5.26-3.68,19.49,19.49,0,0,1-6.07,4l-1.46-2a15.73,15.73,0,0,0,6-3.55,19.81,19.81,0,0,1-3.43-5.71h-1.05v-2.14h4.37v-3h-5.07v12.41h-6.32v1.93h-2V193.54h1.91v11.11h1.23V189.32h2v15.33h1.28V193.54h1.59v-1.35h5.37V189h2.35v3.19h5.48v2.19h-5.48v3h3.54l1.07,1.1A26.53,26.53,0,0,1,142,205.22Zm-1.57-1.52a17.36,17.36,0,0,0,2.47-4.17h-5A14.82,14.82,0,0,0,140.45,203.7Z"/><path class="cls-2" d="M134.55,228.15h-7.28V216.39h6.26a14.8,14.8,0,0,0,.61-2l2.73.37c-.25.54-.53,1.09-.84,1.64h7.87v5.13H129.7V223h15.13v5.18H137v1.75h9.72v2H137v4.24h-2.48v-4.24H125v-2h9.52Zm-4.85-10v1.59h11.73v-1.59Zm0,6.58v1.59h12.69v-1.59Z"/><path class="cls-2" d="M203.58,206.52a18.88,18.88,0,0,0,6.09,2.58l-1.55,2.12a16.51,16.51,0,0,1-8-4.7,12.42,12.42,0,0,1-2.6-4.42h-3.14v6.47q2.87-.52,6.06-1.38l.16,2.11a91.33,91.33,0,0,1-10.41,2.35l-.79-2.3c1.17-.15,2-.26,2.46-.34V202.1h-3.92v-1.89h3.92v-9.58h15.37v1.87H194.38v1.33h11.83v1.8H194.38V197h11.83v1.76H194.38v1.48h15.2v1.89h-3l1.76,1.53A39.65,39.65,0,0,1,203.58,206.52Zm-1.6-1.31a33.47,33.47,0,0,0,4.3-3.11H199.8A9.4,9.4,0,0,0,202,205.21Z"/><path class="cls-2" d="M221.64,190.73v10.21h-4v2.19h4v2h-4v2.46l.6-.09c1.06-.16,2.38-.38,4-.68l.14,2q-5.26,1.19-11.23,1.92l-.68-2.26c1.7-.16,3.3-.34,4.82-.54l.12,0v-2.77h-4.31v-2h4.31v-2.19H211.5V190.73Zm-8.2,1.89v2.25h2.08v-2.25Zm0,4.08V199h2.08V196.7Zm6.28-1.83v-2.25h-2.13v2.25Zm0,4.17V196.7h-2.13V199Zm8.73-2.7c.23.22.59.55,1.05,1l-1,.94h3.24l1,1a46.29,46.29,0,0,1-2.07,5.65l-2.14-.69a25.57,25.57,0,0,0,1.59-3.87h-2.14v9.24a1.67,1.67,0,0,1-2.11,1.95,18.61,18.61,0,0,1-2.74-.19l-.37-2.24a21.94,21.94,0,0,0,2.38.22c.21,0,.34,0,.4-.15a.91.91,0,0,0,.07-.42v-8.41h-3.15v-2.09h5a27.5,27.5,0,0,0-4-3.37l1.54-1.37c.61.42,1.3.94,2.09,1.57a17.78,17.78,0,0,0,1.87-2.37h-6.09v-2H231l1.09,1.21A30,30,0,0,1,228.45,196.34Z"/><path class="cls-2" d="M220.4,367.86H224v3.9h1.24v1.86H224v4.07h-4V382a2,2,0,0,1-.39,1.36,2,2,0,0,1-1.51.48,24.82,24.82,0,0,1-2.51-.19l-.41-2.13a14.65,14.65,0,0,0,2.11.22c.24,0,.39,0,.46-.13a1,1,0,0,0,.08-.48v-3.39h-3.51v-1.92h3.51v-2.15h-4.22v-1.86h4.22v-2h-3v-1.62c-.19.17-.43.36-.71.59l-1.09-1.53V368h-3.2V369h4v1.85H203.43V369h4.24V368h-3.45v-1.61h3.45v-1h-3.95v-1.7h3.95v-1.48h2.2v1.48h3.76v1.7h-3.76v1h3.2V367a13.21,13.21,0,0,0,3.76-4.76l1.49,1h3.27l1.16,1A30.49,30.49,0,0,1,220.4,367.86ZM213,372v9.89a1.68,1.68,0,0,1-.6,1.5,2.66,2.66,0,0,1-1.36.25,17.87,17.87,0,0,1-2.34-.13l-.39-2a18.09,18.09,0,0,0,2.15.16c.23,0,.37-.06.41-.19a1.62,1.62,0,0,0,0-.45v-1.69h-4.52v4.48h-2.09V372Zm-6.61,1.64v1.26h4.52v-1.26Zm0,2.82v1.28h4.52v-1.28Zm11.77-8.63a17.38,17.38,0,0,0,1.73-2.76h-2.44a16.05,16.05,0,0,1-2.34,2.76Zm1.75,1.87v2H222v-2Zm2.09,3.89h-2.09v2.15H222Z"/><path class="cls-2" d="M246.93,362.94v18.64a2,2,0,0,1-.6,1.61,3.25,3.25,0,0,1-2,.47c-.75,0-2-.06-3.84-.19l-.57-2.35a30.9,30.9,0,0,0,3.8.24c.41,0,.66-.07.73-.21a1.42,1.42,0,0,0,.08-.57V365H229.59v18.78h-2.42V362.94Zm-6.33,14.9V373h2.12v6.81h-9.28v1.51h-2.12V373h2.12v4.81h2.46v-6.26h-5.71v-2h7.92a24.51,24.51,0,0,0,1.91-4.33l2.31.8a26.6,26.6,0,0,1-2,3.53h3.59v2H238v6.26Zm-7.32-8.32a21.1,21.1,0,0,0-1.69-3.25l2.08-.89a18.15,18.15,0,0,1,1.75,3.2Z"/><path class="cls-2" d="M248.25,300.78h5.6V288.55h2.53v16.7h-2.53V303.2h-13.6v2.05h-2.5v-16.7h2.5v12.23h5.47V284h2.53Z"/><path class="cls-2" d="M273.06,298.16a26.65,26.65,0,0,0,7.82,4.15l-1.48,2.12a23.69,23.69,0,0,1-8.41-5.67v6.68h-2.42v-6.61l-.06.08a19.79,19.79,0,0,1-8.14,5.91l-1.43-2a21.58,21.58,0,0,0,7.85-4.65H259v-1.94h9.54v-2.16H271v2.16h9.68v1.94Zm-8.7-7.36a14.18,14.18,0,0,1-3.85,3.83L259.09,293a14.52,14.52,0,0,0,4.39-3.8h-4v-1.81h4.88v-1.3c-.95.09-2.14.17-3.55.24l-.74-1.63a72.43,72.43,0,0,0,8.83-1l1.06,1.6c-1.2.25-2.31.44-3.34.57v1.54h4.19v1.81h-4.19v.55a29.52,29.52,0,0,1,4.17,2l-1.3,1.69a28.39,28.39,0,0,0-2.71-1.81l-.16-.08v3.46h-2.26Zm7.36-6h2.37v7h-2.37Zm5.15-.85h2.44v9.11a1.49,1.49,0,0,1-1,1.6,5.76,5.76,0,0,1-1.6.15c-.79,0-1.6,0-2.4-.12l-.42-1.95a19.76,19.76,0,0,0,2.33.17c.31,0,.5-.09.57-.26a1.63,1.63,0,0,0,.06-.52Z"/><path class="cls-2" d="M36.82,159.63a26.14,26.14,0,0,1,2.77,2.22V161H52.26v10.51H50v-.94H41.85v.94H39.59v-9.32L38.43,164c-.55-.65-1.09-1.23-1.61-1.75v9.24H34.47v-9.11c-.88,1-1.7,1.84-2.45,2.53l-1.15-2.11a23.07,23.07,0,0,0,5.65-7.18H31.37v-2.21h3v-3.57h2.37v3.57h1.71l1,1.07a31.7,31.7,0,0,1-2.66,4.82Zm2.43-8.91H52.58v1.94H39.25ZM51.19,154v5.65H40.57V154Zm-9.34,8.75v2.07h3v-2.07Zm0,3.78v2.15h3v-2.15Zm.95-10.81V158h6.09v-2.24Zm7.22,9.1v-2.07H46.91v2.07Zm0,3.86v-2.15H46.91v2.15Z"/><path class="cls-2" d="M59.5,154.07V150h2.55v4.06h5.5v-4.26h2.54v4.26h4.72v2.21H70.09v5.51h5.52V164H70.09v7.43H67.55V164H62a8.81,8.81,0,0,1-1.26,4.23A10.26,10.26,0,0,1,57,171.59l-1.91-1.93a8.2,8.2,0,0,0,3.61-3,6.5,6.5,0,0,0,.75-2.6H54v-2.24H59.5v-5.51H54.7v-2.21Zm8,2.21h-5.5v5.51h5.5Z"/><path class="cls-2" d="M141.4,56.83h8.22v4.32h-2.19V58.58H133.22v2.57H131V56.83h8.12V55h2.26Zm7.31,10.89v9h-2.18v-.89H134.12v.89h-2.18v-9Zm-1.92-5.37v4.41H133.84V62.35Zm-12.71-2.7h12.49v1.71H134.08Zm0,9.7v1.56h5.09V69.35Zm0,3.11v1.65h5.09V72.46Zm1.82-8.6v1.4h8.76v-1.4Zm10.59,7V69.35H141.3v1.56Zm0,3.2V72.46H141.3v1.65Z"/><path class="cls-2" d="M162.33,72h5.15V59.78h2.32v16.7h-2.32v-2H155v2h-2.3V59.78H155V72h5V55.25h2.32Z"/><path class="cls-2" d="M231.3,69a23.21,23.21,0,0,1,3.57,2.47l-1.26,2.07a26.87,26.87,0,0,0-2.31-2.33v5.45H229V70.73a17.13,17.13,0,0,1-3.57,4.62l-1.3-2.1a15.42,15.42,0,0,0,4.13-4.38h-3.52v-2H229V64.75h-4.69v-2h2.43a30.27,30.27,0,0,0-.81-3.08h-1.19V57.55H229V55h2.37v2.53h4v2.07H234.2a19.86,19.86,0,0,1-1,3.08h2.55v2H231.3v2.17h4v2h-4Zm-3.13-9.39a29.2,29.2,0,0,1,.73,3.08h2.2a25.42,25.42,0,0,0,.88-3.08ZM238.64,65a34.64,34.64,0,0,1-.54,6.4,16.52,16.52,0,0,1-2,5.48l-1.84-1.68a13,13,0,0,0,1.69-4.92,41,41,0,0,0,.4-6.37V57l.68-.07a31.66,31.66,0,0,0,7.09-1.52l1.46,1.93a37.47,37.47,0,0,1-6.92,1.55V62.7h7.46V65h-2.55V76.67h-2.3V65Z"/><path class="cls-2" d="M250.37,66a25.87,25.87,0,0,0-3.32-3.58l1.69-1.64a19.43,19.43,0,0,1,3.46,3.44Zm6.12-.94h-2.31V56.44l.12,0a16.26,16.26,0,0,0,4.84-1.32l1.54,1.61a26,26,0,0,1-4.24,1.23v1.84H260v1.67h-3.59v1.84h8.31V61.45h-3.66V59.78h3.66v-1.7H261V56.3h6V65h-8.2c-.24.44-.55.92-.92,1.46h10.58a39.37,39.37,0,0,1-.61,7.86A3.31,3.31,0,0,1,267,76a2.82,2.82,0,0,1-2,.58,28.3,28.3,0,0,1-3.22-.18l-.46-2.21a17.89,17.89,0,0,0,2.91.3c.64,0,1-.17,1.2-.5.33-.69.55-2.57.68-5.65h-9.8a14.82,14.82,0,0,1-1.82,1.51l1.66.47a23.45,23.45,0,0,1-1.32,5.43l-2.16-1.1a19.22,19.22,0,0,0,1.49-4.56l-.81.51-1.25-1.48-.22.79a36.67,36.67,0,0,1-2.49,6.72l-2.1-1.68a37,37,0,0,0,3-7.77l2,1.32-.13.46A11.83,11.83,0,0,0,256.49,65Zm-5.36-4.8a19.45,19.45,0,0,0-3.31-3.42l1.69-1.58a16.47,16.47,0,0,1,3.43,3.29ZM257.66,75a27.49,27.49,0,0,0-.79-4.92l1.7-.46a18.82,18.82,0,0,1,1.13,4.58Zm3.37-1.2a19.9,19.9,0,0,0-1.27-4l1.55-.66a19.44,19.44,0,0,1,1.41,3.74Zm2.88-1.06a12.94,12.94,0,0,0-1.49-3.53l1.51-.71a12.25,12.25,0,0,1,1.57,3.3Z"/></g></g></svg>