<svg xmlns="http://www.w3.org/2000/svg" viewBox="0 0 311.7 232.41"><defs><style>.cls-1{fill:#1d5ebc;}.cls-2{fill:#fff;}</style></defs><g id="レイヤー_2" data-name="レイヤー 2"><g id="レイヤー_1-2" data-name="レイヤー 1"><path class="cls-1" d="M299.85,0h-288A11.84,11.84,0,0,0,0,11.85V220.56a11.85,11.85,0,0,0,11.85,11.85H79.29a11.85,11.85,0,0,0,11.85-11.85v-7.29A11.84,11.84,0,0,1,103,201.42H299.85a11.85,11.85,0,0,0,11.85-11.85V11.85A11.85,11.85,0,0,0,299.85,0Z"/><path class="cls-2" d="M121.11,105.38a48.72,48.72,0,0,1-5.35,2.47l-.93-2.45a57.09,57.09,0,0,0,6.28-2.49v-5h-5.5V95.57h5.5V89.66h2.48v21.65h-2.48ZM129,96.71a26.67,26.67,0,0,0,5-3.45l1.85,1.94a43.54,43.54,0,0,1-6.88,4v8.34c0,.37.12.59.36.67a7.53,7.53,0,0,0,1.75.12,7,7,0,0,0,2.25-.21q.33-.13.45-.9a31.08,31.08,0,0,0,.24-3.41l2.5.76a32,32,0,0,1-.36,4.14,2.22,2.22,0,0,1-1.46,1.82,12.82,12.82,0,0,1-3.68.37c-2,0-3.26-.16-3.78-.5a2.07,2.07,0,0,1-.75-1.88V89.66H129Z"/><path class="cls-2" d="M141,100.79a25.24,25.24,0,0,0-3.42-3.64l1.74-1.66A20.77,20.77,0,0,1,142.83,99Zm-3,8.74a32.67,32.67,0,0,0,3.67-7.07l2,1.41a33.58,33.58,0,0,1-3.71,7.44Zm3.83-14.61a20,20,0,0,0-3.33-3.53l1.68-1.62a18.51,18.51,0,0,1,3.45,3.37Zm15.65.78c0,.35,0,2-.1,5h2.13v2h-2.17c0,1-.07,2.08-.15,3.31h1.88v2h-2a7.69,7.69,0,0,1-.37,2.14c-.35.83-1.19,1.25-2.54,1.25a14.62,14.62,0,0,1-2.38-.19l-.41-2a20.14,20.14,0,0,0,2.4.22c.46,0,.73-.16.82-.48a6.9,6.9,0,0,0,.12-1h-7.92a1.29,1.29,0,0,1,0,.19c-.06.4-.13.77-.18,1.12l-2.31-.23c.45-2.67.76-4.7.92-6.07l0-.27H143v-2h2.46c.21-1.8.39-3.45.54-5Zm-9.52-4H158.7v2.07H147a17.06,17.06,0,0,1-2.29,3.49l-1.59-1.73a15.4,15.4,0,0,0,3.12-5.92l2.37.24C148.37,90.61,148.14,91.22,148,91.68Zm2.08,11h-2.51c-.11.91-.22,1.8-.35,2.68l-.09.63h2.6C149.87,104.36,150,103.26,150,102.66Zm.41-5H148c0,.38-.09,1.18-.2,2.39l-.06.64h2.47l0-.31c0-.22,0-.52.07-.9C150.39,98.41,150.43,97.8,150.45,97.63Zm1.87,5c0,.3-.07.79-.13,1.47L152,106h2.83l.09-1.63q.07-1.19.09-1.68Zm.32-5c0,.89-.09,1.86-.17,2.93v.1h2.62c0-1,0-2,.08-3Z"/><path class="cls-2" d="M166,106.09a6.4,6.4,0,0,0,2.77,1.93,13.77,13.77,0,0,0,4.5.59h9.34a15.13,15.13,0,0,0-.69,2.22h-9.22a11,11,0,0,1-5.66-1.17,9.13,9.13,0,0,1-1.87-1.6,18.74,18.74,0,0,1-3.41,3.31l-1.37-2.23a20.65,20.65,0,0,0,3.24-2.32v-5.67h-3V99H166ZM164.4,95.7A23.57,23.57,0,0,0,161,91.41L162.83,90a22.37,22.37,0,0,1,3.54,4.09Zm8.6-1.54h-6V92.25h3.55c-.4-.65-.82-1.28-1.27-1.87l2.2-.8a16.65,16.65,0,0,1,1.49,2.67h2.85a25.24,25.24,0,0,0,1.08-2.69l2.49.52a21.31,21.31,0,0,1-1.14,2.17h3.71v1.91h-6.55c-.18.57-.38,1.12-.59,1.65h5.73v11.48H168.35V95.81h4.13C172.68,95.24,172.85,94.69,173,94.16Zm-2.35,3.26v1.67h7.54V97.42Zm0,3.17v1.69h7.54v-1.69Zm0,3.26v1.75h7.54v-1.75Z"/></g></g></svg>