<svg xmlns="http://www.w3.org/2000/svg" viewBox="0 0 1127.4 1041.73"><defs><style>.cls-1{fill:#1d5ebc;}.cls-2{fill:#07a3e0;}.cls-3{fill:#f7460f;}.cls-4{fill:#edb720;}.cls-5{fill:#87d616;}.cls-6{fill:#0ec149;}.cls-7{fill:#0ec4c4;}</style></defs><g id="レイヤー_2" data-name="レイヤー 2"><g id="レイヤー_1-2" data-name="レイヤー 1"><path class="cls-1" d="M1115.56,0h-288A11.85,11.85,0,0,0,815.7,11.85V220.56a11.86,11.86,0,0,0,11.85,11.85H895a11.86,11.86,0,0,0,11.85-11.85v-7.29a11.84,11.84,0,0,1,11.84-11.85h196.87a11.84,11.84,0,0,0,11.84-11.85V11.85A11.84,11.84,0,0,0,1115.56,0Z"/><rect class="cls-2" x="817.53" y="248.81" width="226.03" height="75.65" rx="11.85"/><rect class="cls-2" x="817.53" y="328.1" width="111.64" height="75.65" rx="11.85"/><rect class="cls-2" x="863.1" y="488.51" width="180.46" height="80.2" rx="11.85"/><rect class="cls-2" x="933.28" y="328.1" width="110.28" height="75.65" rx="11.85"/><rect class="cls-2" x="933.28" y="409.22" width="110.28" height="75.65" rx="11.85"/><path class="cls-2" d="M818,418.79v29.62a11.86,11.86,0,0,0,11.85,11.85h21.44a11.84,11.84,0,0,1,11.85,11.85h0A11.85,11.85,0,0,0,875,484h42.8a11.84,11.84,0,0,0,11.85-11.84V418.79a11.85,11.85,0,0,0-11.85-11.85H829.84A11.86,11.86,0,0,0,818,418.79Z"/><rect class="cls-3" y="596.06" width="54.74" height="128.51" rx="11.85"/><rect class="cls-3" x="58.27" y="596.06" width="54.74" height="128.51" rx="11.85"/><rect class="cls-3" x="115.94" y="728.21" width="81.17" height="118.48" rx="11.85"/><rect class="cls-3" x="115.95" y="849.43" width="136.51" height="80.2" rx="11.85"/><rect class="cls-3" x="115.95" y="961.53" width="51.75" height="80.2" rx="11.85"/><path class="cls-3" d="M252.71,607.91a11.84,11.84,0,0,0-11.85-11.85H127.54a11.85,11.85,0,0,0-11.85,11.85V712.72a11.85,11.85,0,0,0,11.85,11.84H185a11.84,11.84,0,0,0,11.85-11.84V667.15a11.85,11.85,0,0,1,11.85-11.85h32.15a11.85,11.85,0,0,0,11.85-11.85Z"/><rect class="cls-3" x="200.51" y="658.03" width="52.24" height="91.14" rx="11.85"/><rect class="cls-4" x="280.71" y="599.7" width="52.24" height="164.96" rx="11.85"/><rect class="cls-4" x="280.71" y="795.65" width="94.79" height="64.71" rx="11.85"/><rect class="cls-4" x="280.71" y="864.01" width="94.79" height="64.71" rx="11.85"/><rect class="cls-4" x="379.14" y="795.65" width="94.79" height="64.71" rx="11.85"/><rect class="cls-4" x="379.14" y="864.01" width="94.79" height="64.71" rx="11.85"/><rect class="cls-5" x="448.41" y="599.7" width="52.24" height="164.96" rx="11.85"/><rect class="cls-5" x="504.01" y="738.24" width="52.24" height="95.7" rx="11.85"/><path class="cls-5" d="M556.25,864.92v-16.4a11.85,11.85,0,0,0-11.85-11.85H515.85A11.84,11.84,0,0,0,504,848.52v72a11.84,11.84,0,0,0,11.84,11.84h82.94a11.85,11.85,0,0,0,11.85-11.84v-31.9a11.85,11.85,0,0,0-11.85-11.85H568.1A11.85,11.85,0,0,1,556.25,864.92Z"/><rect class="cls-5" x="559.45" y="738.24" width="51.19" height="135.8" rx="11.85"/><path class="cls-6" d="M614.28,583.3v4.55a11.84,11.84,0,0,1-11.84,11.85h-31a11.86,11.86,0,0,0-11.85,11.85V639.8a11.85,11.85,0,0,0,11.85,11.85h82a11.84,11.84,0,0,0,11.84-11.85V583.3a11.84,11.84,0,0,0-11.84-11.85H626.13A11.85,11.85,0,0,0,614.28,583.3Z"/><rect class="cls-6" x="614.28" y="462.99" width="51.04" height="105.72" rx="11.85"/><rect class="cls-6" x="668.97" y="489.42" width="80.2" height="79.29" rx="11.85"/><path class="cls-6" d="M818.44,474.84v2.73a11.85,11.85,0,0,1-11.85,11.85H764.67a11.85,11.85,0,0,0-11.85,11.85v55.6a11.84,11.84,0,0,0,11.85,11.84H847.6a11.84,11.84,0,0,0,11.85-11.84v-82A11.85,11.85,0,0,0,847.6,463H830.29A11.85,11.85,0,0,0,818.44,474.84Z"/><path class="cls-5" d="M556.25,643.45v-31.9A11.86,11.86,0,0,0,544.4,599.7H515.85A11.85,11.85,0,0,0,504,611.55V722.74a11.84,11.84,0,0,0,11.84,11.85h82.94a11.85,11.85,0,0,0,11.85-11.85V667.15a11.85,11.85,0,0,0-11.85-11.85H568.1A11.85,11.85,0,0,1,556.25,643.45Z"/><rect class="cls-5" x="613.37" y="655.3" width="51.95" height="79.29" rx="11.85"/><rect class="cls-6" x="668.97" y="571.45" width="51.95" height="221.47" rx="11.85"/><rect class="cls-6" x="668.97" y="794.74" width="80.2" height="80.2" rx="11.85"/><path class="cls-7" d="M820.26,806.59V823a11.85,11.85,0,0,0,11.85,11.84h17.32a11.85,11.85,0,0,1,11.84,11.85V863.1A11.86,11.86,0,0,0,873.12,875h60.16a11.85,11.85,0,0,0,11.84-11.85V806.59a11.85,11.85,0,0,0-11.84-11.85H832.11A11.86,11.86,0,0,0,820.26,806.59Z"/><path class="cls-6" d="M817.53,825.73V806.59a11.86,11.86,0,0,0-11.85-11.85H763.75a11.85,11.85,0,0,0-11.84,11.85V863.1A11.85,11.85,0,0,0,763.75,875h82.94a11.85,11.85,0,0,0,11.85-11.85V849.43a11.84,11.84,0,0,0-11.85-11.85H829.38A11.85,11.85,0,0,1,817.53,825.73Z"/><rect class="cls-6" x="779.25" y="725.48" width="82.03" height="67.44" rx="11.85"/><path class="cls-7" d="M985.23,737.32a11.85,11.85,0,0,0-11.85-11.84H875.86A11.84,11.84,0,0,0,864,737.32v43.75a11.84,11.84,0,0,0,11.85,11.85h58.33A11.85,11.85,0,0,0,946,781.07v-3.64a11.84,11.84,0,0,1,11.84-11.85h15.5a11.86,11.86,0,0,0,11.85-11.85Z"/><path class="cls-6" d="M819.35,583.3a11.84,11.84,0,0,0-11.85-11.85H736.41a11.85,11.85,0,0,0-11.85,11.85V781.07a11.85,11.85,0,0,0,11.85,11.85h28.26a11.84,11.84,0,0,0,11.84-11.85V734.59a11.86,11.86,0,0,1,11.85-11.85H807.5a11.84,11.84,0,0,0,11.85-11.85Z"/><rect class="cls-7" x="822.08" y="571.45" width="80.2" height="80.2" rx="11.85"/><rect class="cls-7" x="822.08" y="654.39" width="163.14" height="68.36" rx="11.85"/><rect class="cls-7" x="905.02" y="571.45" width="80.2" height="80.2" rx="11.85"/><rect class="cls-7" x="987.96" y="571.45" width="55.6" height="107.55" rx="11.85"/><rect class="cls-7" x="987.96" y="681.73" width="55.6" height="190.48" rx="11.85"/><rect class="cls-5" x="613.37" y="737.32" width="51.95" height="195.04" rx="11.85"/><rect class="cls-4" x="336.31" y="599.7" width="52.24" height="79.29" rx="11.85"/><rect class="cls-4" x="336.31" y="682.64" width="52.24" height="81.11" rx="11.85"/><rect class="cls-4" x="391.9" y="599.7" width="52.24" height="79.29" rx="11.85"/><rect class="cls-4" x="391.9" y="682.64" width="52.24" height="81.11" rx="11.85"/><rect class="cls-3" x="200.51" y="752.82" width="52.24" height="93.87" rx="11.85"/></g></g></svg>