<svg xmlns="http://www.w3.org/2000/svg" viewBox="0 0 226.03 319.9"><defs><style>.cls-1{fill:#07a3e0;}.cls-2{fill:#fff;}</style></defs><g id="レイヤー_2" data-name="レイヤー 2"><g id="レイヤー_1-2" data-name="レイヤー 1"><rect class="cls-1" width="226.03" height="75.65" rx="11.85"/><rect class="cls-1" y="79.29" width="111.64" height="75.65" rx="11.85"/><rect class="cls-1" x="45.57" y="239.7" width="180.46" height="80.2" rx="11.85"/><rect class="cls-1" x="115.75" y="79.29" width="110.28" height="75.65" rx="11.85"/><rect class="cls-1" x="115.75" y="160.41" width="110.28" height="75.65" rx="11.85"/><path class="cls-1" d="M.47,170V199.6a11.85,11.85,0,0,0,11.84,11.85H33.76A11.84,11.84,0,0,1,45.6,223.29h0a11.85,11.85,0,0,0,11.85,11.85h42.8a11.84,11.84,0,0,0,11.85-11.85V170a11.84,11.84,0,0,0-11.85-11.85H12.31A11.84,11.84,0,0,0,.47,170Z"/><path class="cls-2" d="M48.65,195.06h5.61V182.82h2.52v16.7H54.26v-2H40.65v2h-2.5v-16.7h2.5v12.24h5.48V178.28h2.52Z"/><path class="cls-2" d="M69.61,181.23v5.65H72.3v2.2H69.61v10.63H67.24V189.08H64.52a31,31,0,0,1-.49,5.48,12.12,12.12,0,0,1-2.45,5.31l-2-1.53a10.83,10.83,0,0,0,2.23-5,26.21,26.21,0,0,0,.33-4.07l0-.17H59.43v-2.2h2.72v-5.65H59.91v-2.17H71.74v2.17Zm-2.37,0H64.52v5.65h2.72Zm3.5,16.06a17.39,17.39,0,0,0,8.54-6.79L81.13,192a18.55,18.55,0,0,1-9,7.25Zm.67-12.71a16.66,16.66,0,0,0,6.87-6.11l2,1.25a19.27,19.27,0,0,1-7.41,6.69Zm.44,5.88a17.88,17.88,0,0,0,7-6L80.74,186a19.78,19.78,0,0,1-7.41,6.35Z"/><path class="cls-2" d="M159.8,187.61h9.09v4.92h-2.46v-3H150.82v3H148.4v-4.92h9v-2.26h2.44Zm5.69,3.74v6h-5.9a15.53,15.53,0,0,1-.76,2h8.88V207h-2.57v-1.14H152.19V207h-2.55v-7.64h6.62c.35-1,.57-1.62.66-2h-5.23v-6Zm-13.3,9.9v2.69h12.95v-2.69Zm2-8.1v2.38H163v-2.38Z"/><path class="cls-2" d="M173.16,190.75v-5.49h2.26v5.49h1.63V193h-1.63v7c.48-.21,1-.43,1.42-.66l.21,2.13a34.21,34.21,0,0,1-6,2.74l-.74-2.35c1-.31,2-.63,2.83-.95V193h-2.5v-2.24Zm13.09,9.81a44.5,44.5,0,0,1-1.29-9.21h-5.1v2.77h4.48a47.64,47.64,0,0,1-.46,7.38,1.94,1.94,0,0,1-.79,1.34,2.45,2.45,0,0,1-1.33.3,6.66,6.66,0,0,1-1.59-.16l-.23-2a8.39,8.39,0,0,0,1.32.13c.33,0,.55-.1.64-.31a22.18,22.18,0,0,0,.44-4.58h-2.48c0,.12,0,.3,0,.52a27.74,27.74,0,0,1-.76,6.63,12.2,12.2,0,0,1-1.64,3.56l-1.89-1.47a11.49,11.49,0,0,0,1.67-4.43,30.37,30.37,0,0,0,.37-5.18v-6.6h7.26c0-.93-.06-2.21-.06-3.85h2.28c0,1.68,0,3,.06,3.85h5v2.15h-4.9v.23a51.89,51.89,0,0,0,.71,6.11,26,26,0,0,0,1.69-4.38l2.1.9a38.21,38.21,0,0,1-3,6.49,12.1,12.1,0,0,0,1.32,2.74c.19.29.31.44.37.44s.28-.83.44-2.48l0-.47,1.74,1.11a20,20,0,0,1-.5,3.47c-.28.87-.73,1.3-1.35,1.3-1.05,0-2.24-1.29-3.57-3.89a22.33,22.33,0,0,1-3.93,4l-1.57-1.74a18.7,18.7,0,0,0,3.67-3.46C185.64,201.4,185.93,201,186.25,200.56Zm3.4-11.42a12.17,12.17,0,0,0-2-2.94l1.76-.94a12.86,12.86,0,0,1,2.12,2.85Z"/><path class="cls-2" d="M38.06,116a22.43,22.43,0,0,1-3.15,5.72l-1.22-2.08a23.12,23.12,0,0,0,4-7.11h-3.8v-2.11h4.15v-3c-1,.18-2,.33-3.08.45L34.15,106a36.13,36.13,0,0,0,8-1.78l1.39,1.89c-.86.28-1.91.57-3.17.88v3.5h2.93v2.11H40.39v1.8a23.8,23.8,0,0,1,3.55,2.74l-1.34,2.09a30.82,30.82,0,0,0-2.21-2.5v9.21H38.06Zm12.13-11.78v6.93A13.79,13.79,0,0,0,51,116a19.94,19.94,0,0,0,2.28,4.29A18,18,0,0,0,56,123.5l-1.66,2.29a21.49,21.49,0,0,1-4.18-6.23,15.1,15.1,0,0,1-.84-2.37A12.81,12.81,0,0,1,48,120.73,14,14,0,0,1,43.45,126l-1.62-2a13,13,0,0,0,4.39-4.74,16.39,16.39,0,0,0,1.53-7.73v-7.33Zm-7,10.43a25.48,25.48,0,0,0,1.19-6.08l2.16.32a23.83,23.83,0,0,1-1.26,6.74Zm7.74-.3a36.73,36.73,0,0,0,2.4-6.44l2.3,1a33.4,33.4,0,0,1-2.74,6.33Z"/><path class="cls-2" d="M77,105.87v19.42H74.5V123.7h-14v1.57H58.07v-19.4Zm-16.43,2.24v5.33h5.69v-5.33Zm0,7.52v5.76h5.69v-5.76Zm14-2.19v-5.33H68.66v5.33Zm0,8v-5.76H68.66v5.76Z"/><path class="cls-2" d="M99.94,27.29V25.86h2.46v1.43h8.39V29H102.4v1.07h7.16v1.69H102.4v1.09h9.67v1.74H90.42V32.83h9.52V31.74h-7V30.05h7V29H91.68V27.29ZM109,35.73v9.68a1.91,1.91,0,0,1-.59,1.63,2.9,2.9,0,0,1-1.7.38c-1,0-2.26-.06-3.71-.19l-.37-2.09a25.42,25.42,0,0,0,3.17.24c.35,0,.56-.05.63-.16a1.08,1.08,0,0,0,.09-.54V43.4H96.12v4.11H93.61V35.73ZM96.12,37.46v1.25h10.43V37.46Zm0,2.94v1.31h10.43V40.4Z"/><path class="cls-2" d="M117.75,41.54a16.83,16.83,0,0,1-3.69,4.58l-1.27-2a16.08,16.08,0,0,0,4.52-4.88h-4.12v-2h4.56V35H120v2.19h3.38v2H120v.53a30.09,30.09,0,0,1,3.59,2.57L122.13,44c-.47-.53-1.17-1.22-2.1-2.08v5.6h-2.28ZM127.12,30a28.81,28.81,0,0,0,7.46,3.65l-1.39,2a22.41,22.41,0,0,1-8-5v5.62h-2.41V30.9A17.27,17.27,0,0,1,114.86,36l-1.33-1.8a24.74,24.74,0,0,0,4.93-2.1A13.72,13.72,0,0,0,121.17,30h-6.83v-2h8.41V25.86h2.41v2.07h8.61v2Zm3.48,9.24a15.93,15.93,0,0,0,4.63,4.54L134,46a16.13,16.13,0,0,1-3.88-4.53v6.08h-2.28V41.64A14.27,14.27,0,0,1,124.11,46l-1.37-1.76a15.76,15.76,0,0,0,4.54-5h-3v-2h3.55V35h2.28v2.19h4.74v2Z"/><path class="cls-2" d="M155.25,117.27h12.26v8.62h-2.46v-1.21H154.48v1.21h-2.39v-5.51a22.71,22.71,0,0,1-3,2l-1.59-1.92a16.8,16.8,0,0,0,3.2-2,16.15,16.15,0,0,0,3.81-4.15h-6.71v-2h21.64v2H157.28A19,19,0,0,1,155.25,117.27Zm4.67-8.79h5.22v-3.31h2.41v5.2H150v-5.2h2.39v3.31h5.08v-4.24h2.44Zm-5.44,10.7v3.58h10.57v-3.58Z"/><path class="cls-2" d="M182.85,107.36V111h8.08v2.19h-8.08v3.07h9.42v2.24h-9.42v5a2.08,2.08,0,0,1-.75,1.85,3.46,3.46,0,0,1-1.89.39,39.32,39.32,0,0,1-4.24-.22l-.43-2.39a33.25,33.25,0,0,0,3.88.33c.42,0,.68-.08.78-.23a1.14,1.14,0,0,0,.1-.56v-4.17h-9.68v-2.24h9.68v-3.07h-8.54V111h8.54v-3.27l-.61.06q-3.18.34-6.65.54l-1-2.07a93.08,93.08,0,0,0,16-2l1.39,1.91Q186.37,106.88,182.85,107.36Z"/><path class="cls-2" d="M119.76,279.94a27.1,27.1,0,0,1,2.77,2.21v-.9H135.2v10.51H133v-.93h-8.18v.93h-2.25v-9.32l-1.16,1.84a23.69,23.69,0,0,0-1.61-1.75v9.23h-2.35v-9.11c-.88,1-1.7,1.84-2.45,2.54l-1.16-2.12a23,23,0,0,0,5.66-7.17H114.3v-2.22h3v-3.57h2.37v3.57h1.71l1,1.07a30.33,30.33,0,0,1-2.65,4.82Zm2.43-8.91h13.33V273H122.19Zm11.94,3.28V280H123.51v-5.65Zm-9.35,8.74v2.07h3v-2.07Zm0,3.79V289h3v-2.14Zm1-10.82v2.25h6.09V276Zm7.22,9.1v-2.07h-3.11v2.07Zm0,3.86v-2.14h-3.11V289Z"/><path class="cls-2" d="M145.15,271.8a16,16,0,0,0,.67-1.89l2.72.37c-.26.62-.5,1.12-.71,1.52h7.41v7.26H141.8v1.12h16.74V282H141.8v1.14h16a34.51,34.51,0,0,1-.64,6.87,2.15,2.15,0,0,1-1.22,1.51,5.21,5.21,0,0,1-1.93.26,17.91,17.91,0,0,1-2.5-.16l-.44-1.87H139.88V291h-2.39v-5.35h2.39v2.29h3.83v-3h-4.37V271.8Zm-3.35,1.72v1.1h11v-1.1Zm0,2.69v1.21h11v-1.21Zm8.08,11.69v-2.29h2.31v3.87q.92.09,1.53.09c.51,0,.82-.14.95-.43a16.67,16.67,0,0,0,.58-4.24H146.1v3Z"/></g></g></svg>