<svg xmlns="http://www.w3.org/2000/svg" viewBox="0 0 216.91 332.66"><defs><style>.cls-1{fill:#87d616;}.cls-2{fill:#fff;}</style></defs><g id="レイヤー_2" data-name="レイヤー 2"><g id="レイヤー_1-2" data-name="レイヤー 1"><rect class="cls-1" width="52.24" height="164.96" rx="11.85"/><rect class="cls-1" x="55.6" y="138.53" width="52.24" height="95.7" rx="11.85"/><path class="cls-1" d="M107.84,265.22V248.81A11.86,11.86,0,0,0,96,237H67.44A11.85,11.85,0,0,0,55.6,248.81v72a11.84,11.84,0,0,0,11.84,11.85h82.94a11.85,11.85,0,0,0,11.85-11.85v-31.9a11.85,11.85,0,0,0-11.85-11.84H119.69A11.85,11.85,0,0,1,107.84,265.22Z"/><rect class="cls-1" x="111.04" y="138.53" width="51.19" height="135.8" rx="11.85"/><path class="cls-1" d="M107.84,43.75V11.85A11.85,11.85,0,0,0,96,0H67.44A11.84,11.84,0,0,0,55.6,11.85V123a11.85,11.85,0,0,0,11.84,11.85h82.94A11.86,11.86,0,0,0,162.23,123V67.44A11.85,11.85,0,0,0,150.38,55.6H119.69A11.85,11.85,0,0,1,107.84,43.75Z"/><rect class="cls-1" x="164.96" y="55.6" width="51.95" height="79.29" rx="11.85"/><rect class="cls-1" x="164.96" y="137.62" width="51.95" height="195.04" rx="11.85"/><path class="cls-2" d="M31.33,56.78l2.1,1.89A95.15,95.15,0,0,1,21.6,60.36v2.48H35.21V65H31.1v4.52h5.28v2.14H14.77V69.51H19.1V58.36l.73,0A73.72,73.72,0,0,0,31.33,56.78ZM15,76.48A18.61,18.61,0,0,0,21.75,72l2.07,1.46a24.49,24.49,0,0,1-7,5ZM28.62,65h-7v4.52h7ZM34.3,78.31a54.45,54.45,0,0,0-6.92-4.63l1.72-1.55a31.54,31.54,0,0,1,7,4.2Z"/><path class="cls-2" d="M28.45,86.13v1.25h7.26v1.8H28.45v1.21h6.19V98H28.45v1.3h8.06v2H28.45V104H26.1v-2.76H18.42v-2H26.1V98H20V90.39H26.1V89.18h-7v-1.8h7V86.13H18.62v5.65q0,7.71-1.93,12.17l-2.1-1.56A25.76,25.76,0,0,0,16,96.33,52,52,0,0,0,16.23,91V84.23h8.52V82.36h2.51v1.87h8.93v1.9ZM26.1,92H22.32v1.41H26.1Zm0,3H22.32v1.52H26.1Zm2.35-3v1.41H32.3V92Zm0,3v1.52H32.3V94.91Z"/><path class="cls-2" d="M80.35,102.41a13.76,13.76,0,0,0,4.35-4.85l2.17,1.14a16.15,16.15,0,0,1-4.76,5.56Zm12-16.9h9.17v2.12H80.87V85.51h9V83.28h2.46Zm6.86,4v7.26H92.68V103a1.94,1.94,0,0,1-.43,1.39,2.76,2.76,0,0,1-2,.53,30.84,30.84,0,0,1-3.19-.17l-.5-2.28a21.18,21.18,0,0,0,3.08.23c.29,0,.46-.07.52-.21a.72.72,0,0,0,0-.29V96.76h-7V89.5Zm-13.5,2v3.26h11V91.5ZM99.81,104a35.49,35.49,0,0,0-4.44-5.32l1.79-1.41a38.26,38.26,0,0,1,4.61,5Z"/><path class="cls-2" d="M110.8,89.89A24.59,24.59,0,0,0,114,84.53l2,1a48.19,48.19,0,0,1-2.66,4.36h2.33v2h-4.36l-.11.13a20.45,20.45,0,0,1-1.86,2h5.09v10.64h-2.17v-.85h-4.44v1.15H105.5V97.11c-.51.35-1,.7-1.58,1l-1.11-1.91a19.7,19.7,0,0,0,2.53-1.61,23.81,23.81,0,0,0,3.17-2.73h-5.33v-2h4.44V87.67h-3.2v-2h3.2V83.28h2.21v2.43h2.44v2h-2.44v2.22Zm-3.06,5.9v2.12h4.44V95.79Zm0,3.92v2.22h4.44V99.71ZM121.84,92a10.31,10.31,0,0,1,2.77,6.54,3.87,3.87,0,0,1-.66,2.48,2.51,2.51,0,0,1-2.06.76,19.7,19.7,0,0,1-2.4-.15l-.5-2.33a11.48,11.48,0,0,0,2.19.26c.45,0,.74-.1.86-.29a1.84,1.84,0,0,0,.16-.92,8.35,8.35,0,0,0-1.59-4.62,11,11,0,0,0-1.17-1.47,30.4,30.4,0,0,0,1.94-5.74h-2.83v18.37h-2.28V84.34h6.54l1.3,1.13A42.55,42.55,0,0,1,121.84,92Z"/><path class="cls-2" d="M82.74,167.83a18.25,18.25,0,0,0,2.91,5.54,19.63,19.63,0,0,0,6.43,5.68l-1.59,2.29A21.15,21.15,0,0,1,83.75,175a21.87,21.87,0,0,1-2.33-4.35,16.87,16.87,0,0,1-2.73,5.42A16.41,16.41,0,0,1,72,181.42l-1.57-2A15.37,15.37,0,0,0,77.17,174a13.82,13.82,0,0,0,2.55-6.17H70.85v-2.41h9v-5.36h2.57v5.36h9.17v2.41Z"/><path class="cls-2" d="M76.5,193.63A9.42,9.42,0,0,1,78,196.07a8.38,8.38,0,0,1,.66,3.21,4.27,4.27,0,0,1-.46,2.22,2.51,2.51,0,0,1-2.27.92,12.58,12.58,0,0,1-1.82-.13L73.65,200l.42,0a13.53,13.53,0,0,0,1.43.11c.37,0,.6-.07.7-.21a2.5,2.5,0,0,0,.16-1.13,7.72,7.72,0,0,0-2-5l.12-.33a40.3,40.3,0,0,0,1.54-5H73.47V207H71.19V186.36h6.2l1.14.93A40.38,40.38,0,0,1,76.5,193.63Zm5.45.86v.25a46.41,46.41,0,0,1-.53,7,18.94,18.94,0,0,1-1.64,5.07l-2-1.54a17.8,17.8,0,0,0,1.48-5.14,44.73,44.73,0,0,0,.37-6.14v-7.4H91.76v2.19H82v3.62h8.27l1.11.86a25.54,25.54,0,0,1-3.21,8.38,16.89,16.89,0,0,0,4.25,3.17l-1.31,2.07a18.78,18.78,0,0,1-4.35-3.4,20.66,20.66,0,0,1-4.35,3.63L81,205.27a13.63,13.63,0,0,0,4.36-3.56,18.94,18.94,0,0,1-2.87-7.22Zm4.73,5.28a17.38,17.38,0,0,0,2-5.28H84.53A16.2,16.2,0,0,0,86.68,199.77Z"/><path class="cls-2" d="M74.75,303.59a24.7,24.7,0,0,1-3.15,5.33l-1.39-2.32a20.86,20.86,0,0,0,4.25-6.9l.06-.16h-4v-2.09h4.22v-3.14c-1.13.21-2.15.37-3.08.49l-.93-2a39.47,39.47,0,0,0,8.61-1.95l1.34,1.95c-1.28.4-2.47.72-3.57,1v3.64h3.55v2.09H77.12v1.79a22,22,0,0,1,3.87,3l-1.39,2.21a27.23,27.23,0,0,0-2.48-2.74v8.93H74.75Zm16.31-10.3V312.1H88.65v-1.59H83.82v1.76H81.45v-19Zm-7.24,2.26v12.73h4.83V295.55Z"/><path class="cls-2" d="M103.73,310.49a12,12,0,0,0,3.35-5.27,20.93,20.93,0,0,0,.94-4.67q.09-1,.09-1.8v-1.91h-.78a3.59,3.59,0,0,0-.09.4,15.53,15.53,0,0,1-1.57,4.25l-1.5-1.89A26.76,26.76,0,0,0,106.3,291l2.2.33c-.17,1.28-.36,2.4-.58,3.37h5.7l1.21,1a33.25,33.25,0,0,1-1.82,5.58l-2-.79a18,18,0,0,0,1.28-3.58h-2.11v2a15.57,15.57,0,0,0,1.53,6.56,16.85,16.85,0,0,0,3.41,4.81l-1.48,2.54a24.28,24.28,0,0,1-3.8-6.17,10.4,10.4,0,0,1-.62-1.86,15.13,15.13,0,0,1-4.33,8.25l-1.21-1.66a1.48,1.48,0,0,1-.53,1.15,3.11,3.11,0,0,1-1.59.29,15.94,15.94,0,0,1-2.65-.17l-.42-2.09.47,0c1,.07,1.64.1,2,.1s.44-.06.49-.18a1,1,0,0,0,.06-.41v-6.52H93V301.6h12.22v1.89h-1.53ZM103.52,294v5.59a1.68,1.68,0,0,1-.34,1.21,1.84,1.84,0,0,1-1.32.37,17.14,17.14,0,0,1-2-.15l-.21-1.13H94.37v-4.72h5.76v4.11c.37,0,.67,0,.89,0a.37.37,0,0,0,.41-.41V294H93.3V292.1H105V294Zm-3.3,10.76v4.92h-4V311h-2v-6.27Zm-4-8v1.6h2.07v-1.6Zm0,9.59v1.78h2.09v-1.78Z"/><path class="cls-2" d="M127.94,308.08h5.61V295.84h2.52v16.7h-2.52v-2.05H119.94v2.05h-2.5v-16.7h2.5v12.24h5.48V291.3h2.52Z"/><path class="cls-2" d="M140.72,184.57a20.8,20.8,0,0,0,7.16,4l-1.2,2.07a29.75,29.75,0,0,1-4-2V190H131.16V188.8a36.28,36.28,0,0,1-4.22,2.29l-1.41-1.89A22.27,22.27,0,0,0,131.3,186a13.83,13.83,0,0,0,1.49-1.42h-6.17v-2.09h7.7a15.5,15.5,0,0,0,1.17-2.65l2.46.34c-.33.84-.66,1.61-1,2.31h10v2.09ZM125.92,199a12.43,12.43,0,0,0,4.17-4.4l2.11,1.07a14.11,14.11,0,0,1-4.48,5.13Zm12.33-4.83v5.5a2.15,2.15,0,0,1-.35,1.34c-.3.38-1,.57-2,.57a30.25,30.25,0,0,1-3.27-.15l-.44-2.29a17.81,17.81,0,0,0,2.86.23c.33,0,.53-.06.61-.16a1,1,0,0,0,.09-.52v-4.52H127v-2.09h19.57v2.09Zm-.43-9.6h-2.13a15.25,15.25,0,0,1-3.41,3.45h9.44A20.54,20.54,0,0,1,137.82,184.57Zm7.78,15.82a32.69,32.69,0,0,0-4.44-4.67l1.94-1.37a24.82,24.82,0,0,1,4.41,4.34Z"/><path class="cls-2" d="M141.9,222.31a20.34,20.34,0,0,0,6,2.45l-1.52,2.15a24.75,24.75,0,0,1-4.5-1.84,12.74,12.74,0,0,1-6.16-7.18h-4.23v5.93q3.39-.7,6.35-1.52l.17,2A68.25,68.25,0,0,1,127,227l-.89-2.26c.63-.08,1.56-.22,2.78-.42V207.77h6.5V205.4H138v2.37h6.56v9.77l1.94,1.74A32.93,32.93,0,0,1,141.9,222.31Zm.1-10.39v-2.17H131.46v2.17Zm0,4.08v-2.21H131.46V216Zm-1.82,4.91a29.73,29.73,0,0,0,4-3h-5.95A9.91,9.91,0,0,0,140.18,220.91Z"/><path class="cls-2" d="M181,225.47h21v2.37H181Zm1.44-15.29H200.5v2.38H182.43Zm1.25,7.35h15.58v2.3H183.68Z"/><path class="cls-2" d="M190.19,240.4v-1.22h-9.41v-1.83h9.41v-1.11c-2.7.12-4.82.19-6.38.22l-.94-1.78A133.39,133.39,0,0,0,198,233.57l1.62,1.76q-2.91.43-6.26.7l-.78.06v1.26h9.57v1.83h-9.57v1.22h7.59v7.68h-7.59v1.36H201v1.78h-8.34v1.51h9.68v1.82H180.65v-1.82h9.54v-1.51H182v-1.78h8.21v-1.36h-7.45V240.4Zm0,1.59h-5.08v1.47h5.08Zm0,3h-5.08v1.5h5.08Zm2.42-3v1.47h5.19V242Zm0,3v1.5h5.19V245Z"/><path class="cls-2" d="M183.05,81.65a27.47,27.47,0,0,0-3.6-3.37L181,76.56a18.59,18.59,0,0,1,3.6,3.2Zm-3.47,8.67a37.46,37.46,0,0,0,3.17-7.59l2,1.48a39.3,39.3,0,0,1-3,7.77Zm4.22-14.65a23.4,23.4,0,0,0-3.55-3.33l1.54-1.76a18,18,0,0,1,3.63,3.2Zm3.83,10.1a21.57,21.57,0,0,0-3.1-4.32l1.27-1.82.52.62A29.77,29.77,0,0,0,187.94,77c0-.09.06-.16.08-.21H185V74.71h4.22a15.69,15.69,0,0,0-1.67-3.19l2.05-.94a19.4,19.4,0,0,1,1.85,3.35l-1.79.78h4.82a31.58,31.58,0,0,0,1.68-4.19l2.42.71a31.34,31.34,0,0,1-1.73,3.48h4.58v2.07H198A42.56,42.56,0,0,1,195.21,82c.4.52.8,1.1,1.2,1.71q1.17-2.14,2.11-4.36l1.93,1.08a61.44,61.44,0,0,1-4.63,8l-.06.1q1.26-.11,3.09-.36l-.08-.26a15.66,15.66,0,0,0-.67-1.86l1.83-.65a31.75,31.75,0,0,1,1.78,5.74l-2.05.85c-.18-.93-.31-1.58-.4-2-1.37.32-3.43.66-6.16,1l.09.43-2.05.68c-.1-.69-.2-1.3-.31-1.82-1.72.34-3.62.65-5.71.91l-.66-2.3c.52,0,1,0,1.33-.07l.27-.43C186.56,87.66,187.09,86.76,187.63,85.77Zm1.11-2c.79-1.52,1.48-2.95,2-4.29l1.7,1.29.79-1.16c.23.29.4.49.52.63a.8.8,0,0,1,.15.2,30.32,30.32,0,0,0,1.64-3.63h-5.15a4.8,4.8,0,0,0-.22.45,45.45,45.45,0,0,1-2.65,4.71Q188.25,82.93,188.74,83.74Zm3.42-2.15a61.4,61.4,0,0,1-4,6.91l-.16.23c.74-.06,1.56-.13,2.45-.22,0-.08,0-.18-.07-.32-.16-.65-.34-1.29-.54-1.89l1.66-.56a22.83,22.83,0,0,1,1,3.06l.29,0,.38,0h.15q.65-.93,2-3.09A42.36,42.36,0,0,0,192.16,81.59Z"/><path class="cls-2" d="M188.55,99.16h-2.46c-.56,2.09-2.32,3.67-5.25,4.76l-1.33-1.73c2.23-.57,3.62-1.57,4.19-3h-3.41V97.4H184l.13-1.36h2.35l-.13,1.36h4.44a22.74,22.74,0,0,1-.47,4.21,1.81,1.81,0,0,1-1,1.22,3.82,3.82,0,0,1-1.42.2,16.83,16.83,0,0,1-2.24-.16l-.3-1.75a11.62,11.62,0,0,0,1.84.2c.49,0,.79-.11.92-.32a3.66,3.66,0,0,0,.24-1Zm-6.32,4.66h16.68v9.89h-4.42a43.38,43.38,0,0,1,6.76,2.2l-1.64,1.85a60.78,60.78,0,0,0-7.29-2.72l1.12-1.33h-6.28l1.47,1.26a35.45,35.45,0,0,1-7.31,3l-1.51-2a29.08,29.08,0,0,0,6.68-2.2h-4.26Zm14.22,1.55H184.66v1.19h11.79Zm-11.79,2.71v1.24h11.79v-1.24Zm0,2.74v1.28h11.79v-1.28Zm15.68-13.74v5.84h-8.43V97.08Zm-6.26,1.78v2.3h4v-2.3Z"/></g></g></svg>