<svg xmlns="http://www.w3.org/2000/svg" viewBox="0 0 193.22 329.02"><defs><style>.cls-1{fill:#edb720;}.cls-2{fill:#fff;}</style></defs><g id="レイヤー_2" data-name="レイヤー 2"><g id="レイヤー_1-2" data-name="レイヤー 1"><rect class="cls-1" width="52.24" height="164.96" rx="11.85"/><rect class="cls-1" y="195.95" width="94.79" height="64.71" rx="11.85"/><rect class="cls-1" y="264.31" width="94.79" height="64.71" rx="11.85"/><rect class="cls-1" x="98.43" y="195.95" width="94.79" height="64.71" rx="11.85"/><rect class="cls-1" x="98.43" y="264.31" width="94.79" height="64.71" rx="11.85"/><rect class="cls-1" x="55.6" width="52.24" height="79.29" rx="11.85"/><rect class="cls-1" x="55.6" y="82.94" width="52.24" height="81.11" rx="11.85"/><rect class="cls-1" x="111.19" width="52.24" height="79.29" rx="11.85"/><rect class="cls-1" x="111.19" y="82.94" width="52.24" height="81.11" rx="11.85"/><path class="cls-2" d="M30.08,234.16a21.45,21.45,0,0,1-4.28,2.07l-1.39-1.8a16.38,16.38,0,0,0,6.91-3.9,1.23,1.23,0,0,1-.87-1.21v-3.57h2.37v2.44c0,.39.1.63.29.71a10,10,0,0,0,2.06.11,5.19,5.19,0,0,0,2.25-.24,3,3,0,0,0,.3-1.61l2.15.55a1.48,1.48,0,0,1,0,.21,3.85,3.85,0,0,1-.45,2.11,1.68,1.68,0,0,1-1.26.59,27.4,27.4,0,0,1-3.43.16h-.85c-.28.35-.57.66-.85.95h7.82l1,1a18.48,18.48,0,0,1-4.33,3.36,39.49,39.49,0,0,0,8,1.48l-1.41,2.18a38.41,38.41,0,0,1-9-2.4,32.92,32.92,0,0,1-9.89,2.74l-1.28-2a33.74,33.74,0,0,0,8.84-1.89A15.69,15.69,0,0,1,30.08,234.16ZM41,223.08h4v4.56H43q.66,1,1.26,2.07l-2.14,1.15a23.39,23.39,0,0,0-2.78-4.45l2-.94c.47.55.9,1.08,1.28,1.57v-2.13H35.2a17.46,17.46,0,0,1,2,2.52l-2,1.24a15.37,15.37,0,0,0-2-2.92l1.5-.84H26.82v2.73H24.41v-4.56h3.8a15,15,0,0,0-.87-1.76l-1.66.08-.94-1.87A117,117,0,0,0,42,218l1.76,1.65c-1.08.18-2.07.33-3,.45l1.63.48A17.91,17.91,0,0,1,41,223.08Zm-15.5,7a14.41,14.41,0,0,0,2.05-4.24l2.17.63a13.6,13.6,0,0,1-2.13,4.8Zm8.3-7A14.23,14.23,0,0,0,32.7,221l-3,.23a10.8,10.8,0,0,1,.95,1.9Zm1.36,12.14a2.78,2.78,0,0,0,.29-.15,17.53,17.53,0,0,0,2.59-1.66H32.12A17.47,17.47,0,0,0,35.18,235.22Zm3.43-12.14a22.63,22.63,0,0,0,1.33-2.83c-1.44.2-3,.37-4.84.52a10.49,10.49,0,0,1,1.12,2.31Z"/><path class="cls-2" d="M50.5,233.9a25.94,25.94,0,0,0-3.46-2l.11-.35a47.77,47.77,0,0,0,1.57-6.8h-2v-2.17H49c.23-1.69.42-3.16.56-4.42l2.17.27c-.18,1.49-.35,2.87-.52,4.15H54.6a35.92,35.92,0,0,1-1.5,10.64c.36.25.89.65,1.59,1.21l-1.28,1.82c-.48-.44-.87-.78-1.18-1a14.07,14.07,0,0,1-3.64,4.68L47,238.12A10.61,10.61,0,0,0,50.5,233.9Zm.76-1.93a35.41,35.41,0,0,0,1.23-7.24H50.91A46.3,46.3,0,0,1,49.55,231C50,231.24,50.59,231.56,51.26,232Zm6.35-5.85H55.15v-1.87h1.69a13.19,13.19,0,0,0-1.06-2.58l1.69-.55a11.61,11.61,0,0,1,1.27,2.65l-1.5.48h6a24.15,24.15,0,0,0,1.56-4l2.22.83c-.51,1-1.06,2.11-1.67,3.17h2.46v1.87h-8c0,.41-.08,1-.15,1.63h8.7v2h-9c0,.13-.06.31-.1.55s-.12.62-.19.93h7l1,1a14.41,14.41,0,0,1-3,4.11,18.13,18.13,0,0,0,4.37,1.48l-1,2.09a15.78,15.78,0,0,1-5-2.15l-.12-.07a21.88,21.88,0,0,1-4.89,2.43l-1.19-1.83a13.34,13.34,0,0,0,4.45-1.82,13.21,13.21,0,0,1-2.47-2.76,17,17,0,0,1-3.94,6l-1.66-1.57a14.18,14.18,0,0,0,4.44-8.41h-2.5v-2h2.8C57.53,227.12,57.58,226.58,57.61,226.12Zm-3.22-6.91a73,73,0,0,0,11.85-1.16l1.15,1.75q-5.58.84-12.22,1.21Zm6.16,5a12.82,12.82,0,0,0-1.18-2.87l1.74-.52a12.08,12.08,0,0,1,1.47,2.73Zm1.8,11a10.14,10.14,0,0,0,2-2.22H59.88A13.4,13.4,0,0,0,62.35,235.21Z"/><path class="cls-2" d="M26.78,73.84h5.6V61.61h2.53v16.7H32.38v-2H18.78v2H16.27V61.61h2.51V73.84h5.47V57.07h2.53Z"/><path class="cls-2" d="M34.55,84.46v18.45h-2.5v-1.7H19.17v1.68H16.66V84.46ZM19.17,86.67V98.93H32.05V86.67Z"/><path class="cls-2" d="M79.53,13.88A16,16,0,0,0,80.2,12l2.72.36a16.44,16.44,0,0,1-.72,1.53h7.41v7.25H76.17v1.13H92.92v1.8H76.17v1.13h16a33.73,33.73,0,0,1-.65,6.88,2.14,2.14,0,0,1-1.21,1.5,5.21,5.21,0,0,1-1.93.27,17.76,17.76,0,0,1-2.5-.17l-.44-1.87H74.26V33H71.87V27.68h2.39V30h3.83V27H73.72V13.88Zm-3.36,1.71v1.1h11v-1.1Zm0,2.69V19.5h11V18.28ZM84.26,30v-2.3h2.31v3.88q.92.09,1.53.09c.51,0,.82-.15,1-.44A17.08,17.08,0,0,0,89.63,27H80.48v3Z"/><path class="cls-2" d="M74.72,49.39a29.62,29.62,0,0,1-2.57,5.53l-1.26-2.47a22.72,22.72,0,0,0,3.58-7.81h-3.1V42.45h3.35V37.71H77v4.74h2.62v2.19H77v1.94a19.16,19.16,0,0,1,3.3,3l-1.23,2.1A25.39,25.39,0,0,0,77,49.17V59.36H74.72Zm14.62,4.16a11.17,11.17,0,0,0,3.92,3.31l-1.39,2.2a12.75,12.75,0,0,1-4.33-4,17.34,17.34,0,0,1-2.42-6.18H82.83v7.32c1.71-.5,3.15-1,4.3-1.39l.21,2.12a44.49,44.49,0,0,1-7.51,2.43L79.07,57c.52-.09,1-.19,1.48-.3V38.51H91.33V48.83l1.59,1.36A25.51,25.51,0,0,1,89.34,53.55ZM89,40.44H82.83v2.28H89Zm0,4.11H82.83V47H89Zm-.67,7.29a23.06,23.06,0,0,0,2.64-3H87.36A14.66,14.66,0,0,0,88.35,51.84Z"/><path class="cls-2" d="M82.93,102h8.54v2.28H74.55v3.53a47.29,47.29,0,0,1-.51,8,14.1,14.1,0,0,1-1.65,4.5l-2-1.89a13.13,13.13,0,0,0,1.43-5,51.65,51.65,0,0,0,.24-5.66V102h8.32V98.77h2.57Zm-6.61,15c0-.06.07-.14.11-.24a72.21,72.21,0,0,0,4.18-11.39l2.57.59A75,75,0,0,1,79,116.8l2.39-.21c2.62-.21,4.65-.43,6.07-.65-.94-1.8-1.82-3.35-2.62-4.67l2.15-1a63.14,63.14,0,0,1,4.79,8.59l-2.27,1.46c-.3-.68-.66-1.48-1.09-2.4q-5.75,1-13.67,1.7l-.87-2.44,1.42-.08Z"/><path class="cls-2" d="M78.62,126a16,16,0,0,0,.67-1.89l2.72.37c-.26.61-.5,1.12-.72,1.52H88.7v7.25H75.26v1.13H92v1.8H75.26v1.14h16a33.7,33.7,0,0,1-.65,6.87,2.1,2.1,0,0,1-1.21,1.5,5.23,5.23,0,0,1-1.94.27,17.61,17.61,0,0,1-2.49-.17l-.44-1.87H73.35v1.24H71v-5.35h2.39v2.29h3.83v-3H72.8V126Zm-3.36,1.71v1.11h11v-1.11Zm0,2.7v1.21h11v-1.21Zm8.09,11.69v-2.29h2.3v3.87c.62.06,1.13.09,1.54.09s.82-.15,1-.44a16.74,16.74,0,0,0,.57-4.23H79.57v3Z"/><path class="cls-2" d="M126.59,32.12a13.86,13.86,0,0,0,2.34-4.65l2.19.69a15.58,15.58,0,0,1-2.28,5.38Zm8.47-18a18.87,18.87,0,0,0,.75-2.07l2.71.36c-.27.63-.52,1.17-.74,1.59l-.07.12h7.51v7H131.78v1.06h16.75V24H131.78V25h16a32.57,32.57,0,0,1-.63,7A2.15,2.15,0,0,1,146,33.5a4.32,4.32,0,0,1-2,.34,18.26,18.26,0,0,1-2.52-.17L141,31.39a17.69,17.69,0,0,0,2.71.26c.53,0,.86-.16,1-.46a20.2,20.2,0,0,0,.54-4.44H129.32V14.1Zm-3.28,1.64v1.12h11V15.74Zm0,2.64v1.16h11V18.38Zm1.16,14.75a38.33,38.33,0,0,0-.61-4.94l2.07-.39a25.35,25.35,0,0,1,1,4.76Zm4.72-.55A22.49,22.49,0,0,0,136,28l2-.64a20.34,20.34,0,0,1,1.83,4.35ZM142,31.3a15.22,15.22,0,0,0-2-3.59l1.8-.85a15.06,15.06,0,0,1,2.15,3.39Z"/><path class="cls-2" d="M138.43,39.92h8.62l1.12,1.15A39,39,0,0,1,147,46.85a24.66,24.66,0,0,1-2.2,5.22,17.64,17.64,0,0,0,4,4.48l-1.46,2.53a22,22,0,0,1-4-4.81,26.28,26.28,0,0,1-2.43,3,13.3,13.3,0,0,1-2.42,2L137,57.1A14.76,14.76,0,0,0,142.09,52l-.08-.17a25.82,25.82,0,0,1-2.08-6.16,34.43,34.43,0,0,1-.61-3.44H138V40.79H137V59.36h-2.28V54.83L134,55c-2.23.57-4.37,1.05-6.41,1.41l-.73-2.37c1-.13,1.7-.23,2.09-.29v-13h-1.64V38.62h11.17Zm-3.76.87h-3.56v2.66h3.56Zm0,4.55h-3.56V48h3.56Zm0,4.54h-3.56v3.53l.87-.14,2.69-.48Zm6.81-7.7a23.89,23.89,0,0,0,1.92,7.39,28,28,0,0,0,2.21-7.39Z"/><path class="cls-2" d="M147.59,99.55v18.63a2,2,0,0,1-.6,1.62,3.3,3.3,0,0,1-2,.46q-1.12,0-3.84-.18l-.57-2.35a32.92,32.92,0,0,0,3.79.23c.42,0,.66-.07.74-.21a1.42,1.42,0,0,0,.08-.57V101.64H130.25v18.78h-2.42V99.55Zm-6.33,14.9v-4.81h2.11v6.81H134.1V118H132v-8.31h2.12v4.81h2.45v-6.27h-5.7v-2h7.92a24.19,24.19,0,0,0,1.91-4.33l2.3.8a25,25,0,0,1-2,3.53h3.6v2h-5.92v6.27Zm-7.32-8.33a21,21,0,0,0-1.69-3.24l2.08-.89a17.47,17.47,0,0,1,1.75,3.2Z"/><path class="cls-2" d="M138.88,141.29h5.61V129.05H147v16.7h-2.52V143.7H130.88v2.05h-2.5v-16.7h2.5v12.24h5.47V124.51h2.53Z"/><path class="cls-2" d="M136.51,224.65a20.39,20.39,0,0,0,7.71,3.93l-1.45,2.06c-.73-.26-1.32-.49-1.76-.68v9.85h-2.44v-1h-11v1h-2.41v-9.52c-.35.18-.92.44-1.72.78l-1.33-1.95a21.77,21.77,0,0,0,7.69-4.47h-7v-2h9v-1.71l-.43,0q-2.94.21-6.47.35l-1-1.91A93.71,93.71,0,0,0,139.6,218l1.56,1.76c-1.95.39-4.24.71-6.87,1v1.93h9.07v2Zm-2.22.46v4.29h-2.42v-4.15a19,19,0,0,1-6,4.65h14.94A17.9,17.9,0,0,1,134.29,225.11Zm-6.71,6.57v1.75h11v-1.75Zm0,3.42v1.81h11V235.1Z"/><path class="cls-2" d="M147.88,219.08h2.67v7.52a36.67,36.67,0,0,1-.52,7.13,12.13,12.13,0,0,1-1.66,4.08,14,14,0,0,1-1.13,1.5l-2.11-1.8a10.06,10.06,0,0,0,2.49-5.64,36.1,36.1,0,0,0,.26-4.91Zm7.07.34h2.59v18.11H155Zm7.31-.89h2.62v21h-2.62Z"/><path class="cls-2" d="M34.93,287.41h9.22v1.87H23.45v-1.87H32.5v-1.8h2.43ZM38.09,305h-7.2v.92H28.6v-6.19H38.74v5.19a13.43,13.43,0,0,0,1.59.08c.37,0,.6-.06.68-.18a.86.86,0,0,0,.1-.48v-5.74H26.48v8.71H24V296.74H43.57V305A1.92,1.92,0,0,1,43,306.6a2.69,2.69,0,0,1-1.76.46c-.61,0-1.49-.05-2.66-.15Zm2.82-14.49v5.08H26.69v-5.08Zm-11.78,1.73v1.62h9.32v-1.62Zm7.33,9.27H30.89v1.71h5.57Z"/><path class="cls-2" d="M53.21,290.41v4.18h3.64v2.14H53.18c0,.74-.1,1.48-.2,2.22a31.9,31.9,0,0,1,4.19,4.19l-1.6,2.2a26.3,26.3,0,0,0-3.16-3.93A12,12,0,0,1,51.12,304a10.68,10.68,0,0,1-3.25,3.27l-1.71-2q4.28-2.55,4.65-8.61H46v-2.14h4.89v-4.18H49.54a16.3,16.3,0,0,1-1.91,3.4l-1.83-1.48a15.61,15.61,0,0,0,2.74-6.72l2.39.35c-.21.92-.41,1.66-.6,2.24H56.4v2.21Zm13.29-2.5V306.3H64.11v-1.47h-4.2v1.69H57.54V287.91Zm-6.59,2.24V302.6h4.2V290.15Z"/><path class="cls-2" d="M127.19,295v12.28h-2.35v-9.33c-.55.62-1.17,1.26-1.87,1.92l-1.09-2.23a25.13,25.13,0,0,0,5.33-6.91l2,1.12A31.6,31.6,0,0,1,127.19,295ZM122,290.59a16.13,16.13,0,0,0,4.47-4.94l2.09,1.09a22.32,22.32,0,0,1-5.3,5.8Zm5.7,14.57a16.58,16.58,0,0,0,1.6-5.4l2.11.43a19.17,19.17,0,0,1-1.68,6.29Zm9.36-13.68h5.63v6.28H129.34v-6.28h5.44v-1.74h-6.15V287.8h6.15v-2.19h2.32v2.19h6.61v1.94H137.1Zm-3.85,1.74h-1.82V296h1.82Zm-.95,6.37h2.19V304c0,.32.08.52.26.61a4.36,4.36,0,0,0,1.53.15,12.13,12.13,0,0,0,1.51-.08.64.64,0,0,0,.56-.51,9,9,0,0,0,.24-2.06l2.14.79c0,1.69-.27,2.8-.76,3.35a2,2,0,0,1-1.23.54,18.22,18.22,0,0,1-2.6.13,10.39,10.39,0,0,1-2.92-.24,1.44,1.44,0,0,1-.92-1.52Zm4.6,3a19.89,19.89,0,0,0-2.6-3.67l1.8-1.05a21.76,21.76,0,0,1,2.69,3.44ZM135,293.22V296h1.88v-2.82Zm3.66,0V296h1.95v-2.82Zm3.48,12.55a28.2,28.2,0,0,0-2.46-5.74l1.93-.94a27.38,27.38,0,0,1,2.57,5.36Z"/><path class="cls-2" d="M153.36,287.3c.27-.66.49-1.29.67-1.89l2.71.36c-.26.62-.5,1.13-.71,1.53h7.41v7.25H150v1.13h16.74v1.8H150v1.13h16a34,34,0,0,1-.64,6.88,2.12,2.12,0,0,1-1.21,1.5,5.27,5.27,0,0,1-1.94.27,17.61,17.61,0,0,1-2.49-.17l-.45-1.87H148.08v1.24h-2.39v-5.35h2.39v2.29h3.83v-3h-4.37V287.3ZM150,289v1.1h11V289Zm0,2.69v1.22h11V291.7Zm8.09,11.7v-2.29h2.3V305c.61.06,1.13.09,1.53.09s.82-.15,1-.44a16.11,16.11,0,0,0,.58-4.24H154.3v3Z"/></g></g></svg>