<svg xmlns="http://www.w3.org/2000/svg" viewBox="0 0 223.29 303.5"><defs><style>.cls-1{fill:#0ec4c4;}.cls-2{fill:#fff;}</style></defs><g id="レイヤー_2" data-name="レイヤー 2"><g id="レイヤー_1-2" data-name="レイヤー 1"><path class="cls-1" d="M0,235.14v16.41A11.85,11.85,0,0,0,11.85,263.4H29.16A11.84,11.84,0,0,1,41,275.24v16.41A11.86,11.86,0,0,0,52.86,303.5H113a11.85,11.85,0,0,0,11.85-11.85V235.14A11.85,11.85,0,0,0,113,223.29H11.85A11.85,11.85,0,0,0,0,235.14Z"/><path class="cls-1" d="M165,165.88A11.84,11.84,0,0,0,153.12,154H55.6a11.84,11.84,0,0,0-11.85,11.85v43.74A11.84,11.84,0,0,0,55.6,221.47h58.33a11.84,11.84,0,0,0,11.84-11.85V206a11.85,11.85,0,0,1,11.85-11.85h15.5A11.85,11.85,0,0,0,165,182.28Z"/><rect class="cls-1" x="1.82" width="80.2" height="80.2" rx="11.85"/><rect class="cls-1" x="1.82" y="82.94" width="163.14" height="68.36" rx="11.85"/><rect class="cls-1" x="84.76" width="80.2" height="80.2" rx="11.85"/><rect class="cls-1" x="167.7" width="55.6" height="107.55" rx="11.85"/><rect class="cls-1" x="167.7" y="110.28" width="55.6" height="190.48" rx="11.85"/><path class="cls-2" d="M35.77,35.27v2.85h3.64v2H35.77v3.2h4.35v2.11H35.77v5.72H33.43V45.43H29.11V43.32h4.32v-3.2H29.9v-2h3.53V35.27H29.68v1H28.4v3.93H23a23.19,23.19,0,0,1-.79,2.28h6.34v8.39H26.4v-1H22.78v1.28H20.63V45.49a13.6,13.6,0,0,1-1.49,1.81L18,45.16a12.42,12.42,0,0,0,2.89-5H19.24V38.29h2.08c.08-.47.16-1,.22-1.71l0-.33H18.35v-2H21.7c0-.8,0-1.46,0-2H19.4V30.37h9v3.92h1V33.18h2a14.78,14.78,0,0,0-1.52-3.11l2.12-.68a21.06,21.06,0,0,1,1.6,3.79h1.78l.07-.18a38.57,38.57,0,0,0,1.26-3.7l2.37.66a34.38,34.38,0,0,1-1.34,3.22h2.05v2.09Zm-13,9.13v3.49H26.4V44.4Zm3.45-8.15H23.7q-.07,1-.24,2h2.77Zm0-3.94H23.87c0,.85,0,1.51-.05,2h2.41Z"/><path class="cls-2" d="M41.05,49.14a16.54,16.54,0,0,0,2.14-5.24l2.25.69a17.71,17.71,0,0,1-2.32,6ZM61.1,30.48v2H53.72v1.67h6.33v1.78H53.72v1.63h6.33v1.79H53.72v1.74H62.4a45.63,45.63,0,0,1-.71,8.32,2.29,2.29,0,0,1-1,1.42,4.48,4.48,0,0,1-2,.34,27.58,27.58,0,0,1-3.5-.17l-.46-2.18A32.86,32.86,0,0,0,58,49c.6,0,1-.11,1.14-.32q.43-.65.72-5.74H43.44V30.48Zm-15.25,2v1.67h5.54V32.44Zm0,3.45v1.63h5.54V35.89Zm0,3.42v1.74h5.54V39.31ZM47.38,50a33.27,33.27,0,0,0-.55-5.24l2.26-.42A26.91,26.91,0,0,1,50,49.46Zm4.69-.92a22.45,22.45,0,0,0-1.34-4.67l2-.61a22.53,22.53,0,0,1,1.59,4.44Zm4.35-1.24A15.52,15.52,0,0,0,54.59,44l1.81-.75a15.15,15.15,0,0,1,2.08,3.57Z"/><path class="cls-2" d="M104.47,41.14a29.25,29.25,0,0,1-2.41,5.41L101,44a25.14,25.14,0,0,0,3.31-7.68h-3V34.11h3.16V29.5h2.3v4.61h2.52V36.3h-2.52v1.87a21,21,0,0,1,3,2.76l-1.23,2.16q-.92-1.34-1.74-2.37V51.15h-2.3Zm10.34-3.39h-2.45v.54a37,37,0,0,1-.51,7.11,15.29,15.29,0,0,1-2.37,5.39l-1.68-1.67a13.4,13.4,0,0,0,2-5.21,32.06,32.06,0,0,0,.34-5.12V31.35l1.55-.12a54.23,54.23,0,0,0,8.89-1.43l1.52,1.87a67.23,67.23,0,0,1-9.72,1.51V35.7H123v2h-6q0,1.68-.09,2.58h5.17a58.52,58.52,0,0,1-.56,8.83,2,2,0,0,1-.79,1.29,3.35,3.35,0,0,1-1.88.43,16.21,16.21,0,0,1-2.35-.18l-.4-2.26a18.86,18.86,0,0,0,2.18.18q.7,0,.9-.36.42-.8.62-5.95h-3a20.47,20.47,0,0,1-.57,3.26,12.26,12.26,0,0,1-3.41,5.69l-1.67-1.52a11.58,11.58,0,0,0,3.22-6.23,38.68,38.68,0,0,0,.48-5.44Z"/><path class="cls-2" d="M136.62,36.2A25.76,25.76,0,0,0,140,40.72a28.2,28.2,0,0,0,5.93,5L144.18,48a31.59,31.59,0,0,1-8-8.84v12h-2.55V39.36a27.52,27.52,0,0,1-7.87,9.08l-1.7-2a26.06,26.06,0,0,0,4-3.35,29.47,29.47,0,0,0,5.13-6.89h-8.5V33.9h8.91V29.5h2.55v4.4h9.08v2.3Z"/><path class="cls-2" d="M61.79,111v-4.92h2.28V111h2.09v2.21H64.07v7.72c.82-.3,1.53-.57,2.11-.81l.29,2.12a48.82,48.82,0,0,1-6.57,2.57l-.78-2.37q1.27-.33,2.67-.75v-8.48H59.44V111Zm17,5.74v8.93a2,2,0,0,1-.57,1.67,2.78,2.78,0,0,1-1.7.39,26.42,26.42,0,0,1-3.09-.17l-.45-2a25.27,25.27,0,0,0,2.75.18c.34,0,.54-.07.62-.2a1.26,1.26,0,0,0,.1-.57v-8.21H65.64v-2.07h15.5v2.07ZM74,110.33a45.5,45.5,0,0,1,6,2.54l-1.48,1.71a51.74,51.74,0,0,0-5.33-2.72,9,9,0,0,1-5.27,2.72L66.8,112.8q4.13-.73,5.07-2.76H67.06v-1.93h5v-2h2.31v2H80V110H74.13A2.56,2.56,0,0,1,74,110.33Zm.71,7.85v6.11H69.49v1.16h-2v-7.27ZM69.49,120v2.44h3.28V120Z"/><path class="cls-2" d="M94.22,109.5v5.65h7.41v2.21H94.22v7.08h9.26v2.26H82.63v-2.26H91.7v-7.08H84.47v-2.21H91.7V109.5H83.47v-2.26h19.16v2.26Zm5.67,14.15a23.21,23.21,0,0,0-3.22-4.22l2-1.28a28.43,28.43,0,0,1,3.31,4.09Z"/><path class="cls-2" d="M183.34,48.64a35,35,0,0,0,6.52-4.42l1.15,2a41.77,41.77,0,0,1-6,4.61Zm5.95-15.92V30.41h2.44v2.31h4.76V30.41H199v2.31h5.83v2H199v1.81h-2.46V34.76h-4.76v1.87h-2.44V34.76h-5.63v-2Zm-5.54,5.81h6.42V40.9h-6.42Zm14,1.93c0,.11,0,.29.06.55q.56,5.93,7.24,8.67l-1.5,2.22a14.3,14.3,0,0,1-4.18-2.77,11.73,11.73,0,0,1-2.55-4,10.34,10.34,0,0,1-2.46,4.17A14.93,14.93,0,0,1,190,52.14l-1.59-2A11.69,11.69,0,0,0,193.22,47a9.57,9.57,0,0,0,2.08-6.44v-.34h-1.42a18.72,18.72,0,0,1-2.22,3.63l-1.87-1.67a15.29,15.29,0,0,0,3.14-6.27l2.3.48c-.21.77-.39,1.36-.53,1.76h8.35l1.29,1a29.63,29.63,0,0,1-2.66,5.59l-2.17-.92a19.12,19.12,0,0,0,1.9-3.6h-3.68Z"/><path class="cls-2" d="M185.92,61.33V55.84h2.26v5.49h1.63v2.24h-1.63v7c.48-.21.95-.43,1.42-.66l.21,2.13a34.21,34.21,0,0,1-6,2.74l-.74-2.35c1-.31,2-.63,2.83-1V63.57h-2.5V61.33ZM199,71.14a44.5,44.5,0,0,1-1.29-9.21h-5.1V64.7h4.48a47.64,47.64,0,0,1-.46,7.38,1.94,1.94,0,0,1-.79,1.34,2.45,2.45,0,0,1-1.33.3,6.6,6.6,0,0,1-1.59-.16l-.23-2a8.39,8.39,0,0,0,1.32.13c.33,0,.55-.1.64-.31a22.18,22.18,0,0,0,.44-4.58h-2.48c0,.12,0,.3,0,.52a27.29,27.29,0,0,1-.75,6.63,12.2,12.2,0,0,1-1.64,3.56L188.32,76A11.51,11.51,0,0,0,190,71.57a30.58,30.58,0,0,0,.37-5.19v-6.6h7.26c0-.93-.06-2.21-.06-3.85h2.28c0,1.68,0,3,.06,3.85h5v2.15H200v.23a54.28,54.28,0,0,0,.7,6.11,24.86,24.86,0,0,0,1.7-4.38l2.1.9a38.21,38.21,0,0,1-3,6.49A12.1,12.1,0,0,0,202.79,74c.19.29.31.44.37.44s.28-.83.44-2.48l0-.47,1.74,1.11a21,21,0,0,1-.5,3.47c-.28.87-.73,1.31-1.35,1.31q-1.58,0-3.57-3.9a22.33,22.33,0,0,1-3.93,4l-1.57-1.74a18.7,18.7,0,0,0,3.67-3.46C198.4,72,198.69,71.59,199,71.14Zm3.4-11.42a12.17,12.17,0,0,0-2-2.94l1.76-.94a13.1,13.1,0,0,1,2.12,2.85Z"/><path class="cls-2" d="M196.34,184.22v5.71h9.6v2.26h-9.6v10.26h-2.59V192.19h-9.46v-2.26h9.46v-5.34c-2.51.3-4.85.52-7,.67l-1-2.16a74,74,0,0,0,15.77-2.28l1.71,1.93A66.85,66.85,0,0,1,196.34,184.22Z"/><path class="cls-2" d="M199,222.63a28.76,28.76,0,0,0,7.2,2.71l-1.46,2.06a24.64,24.64,0,0,1-8.43-4.57V228h-2.48v-5a18.07,18.07,0,0,1-8.2,4.77l-1.46-1.87a20.42,20.42,0,0,0,7.34-3.21h-7V220.8h9.3v-1.36h-6.15V214h-3.4v-1.74h3.4v-1.41h2.45v1.41h3.5v-1.65H196v1.65h4v-1.65h2.44v1.65h3.48V214h-3.48v2.63h-8.81V214h-3.5v3.66H204v1.75h-7.7v1.36h9.41v1.83Zm-8.63-14.83v-1.48h2.41v1.48h4.5v-1.48h2.46v1.48h5.74v1.75h-5.74v1.23h-2.46v-1.23h-4.5v1.23h-2.41v-1.23h-5.65V207.8ZM200,214h-4v1.11h4Z"/><path class="cls-2" d="M53.29,263.5l.36.25a22.25,22.25,0,0,1,2.83,2.43l-1.37,1.89a22,22,0,0,0-1.74-1.9l-.08-.09v9.28H51v-9.07a30.26,30.26,0,0,1-2.54,2.53l-1.18-2.16a22.7,22.7,0,0,0,5.84-7.09H47.86v-2.23h3.08v-3.63h2.33v3.63H55.2l.89,1.19a27,27,0,0,1-2.8,4.89Zm7.85-6.44v-3.35h2.35v3.35h4.83v12.62H63.49v5.68H61.14v-5.68H56.59V257.06Zm-2.4,2v3.22h2.45V259.1Zm0,5.18v3.34h2.45v-3.34Zm7.39-2V259.1H63.45v3.22Zm0,5.3v-3.34H63.45v3.34Z"/><path class="cls-2" d="M85.12,258.39a20.73,20.73,0,0,0,7.16,3.95l-1.2,2.07a29.74,29.74,0,0,1-4-2v1.33H75.56v-1.16a35.36,35.36,0,0,1-4.21,2.29L69.93,263a22.35,22.35,0,0,0,5.78-3.2,15,15,0,0,0,1.49-1.43H71V256.3h7.7a14.08,14.08,0,0,0,1.17-2.65l2.46.35c-.33.84-.66,1.6-1,2.3h10v2.09Zm-14.8,14.43a12.6,12.6,0,0,0,4.18-4.39l2.11,1.07a14.16,14.16,0,0,1-4.48,5.12ZM82.65,268v5.5a2.16,2.16,0,0,1-.34,1.35,2.59,2.59,0,0,1-2,.56c-1.27,0-2.36,0-3.27-.14L76.61,273a17.73,17.73,0,0,0,2.86.22c.32,0,.53-.05.6-.16a.9.9,0,0,0,.1-.52V268H71.42V265.9H91V268Zm-.42-9.6H80.09a15.2,15.2,0,0,1-3.4,3.45h9.43A19.53,19.53,0,0,1,82.23,258.39ZM90,274.21a33.77,33.77,0,0,0-4.43-4.67l1.93-1.37a24.54,24.54,0,0,1,4.42,4.34Z"/><path class="cls-2" d="M95.93,254.62H98.6v7.52a36.6,36.6,0,0,1-.52,7.13,12.06,12.06,0,0,1-1.66,4.09,14,14,0,0,1-1.13,1.5l-2.12-1.8a10,10,0,0,0,2.5-5.65,37.64,37.64,0,0,0,.26-4.9ZM103,255h2.59v18.11H103Zm7.31-.89h2.62v21h-2.62Z"/><path class="cls-2" d="M82.11,189.75a20.52,20.52,0,0,0,7.43,4l-1.43,2.09a20.79,20.79,0,0,1-4.7-2.31A19.46,19.46,0,0,1,79.59,190v7H77.18v-6.83a16.62,16.62,0,0,1-4,3.89,18.33,18.33,0,0,1-4,2.14l-1.53-2a17.74,17.74,0,0,0,5.89-3.15,13.83,13.83,0,0,0,1.36-1.32H69.52v-9.12h7.66v-1.5H68v-2h9.22v-1.8h2.41v1.8H89v2H79.59v1.5h7.8v9.12Zm-4.93-7.25H71.94v1.81h5.24Zm0,3.54H71.94v1.84h5.24Zm2.41-3.54v1.81H85V182.5Zm0,3.54v1.84H85V186Z"/><path class="cls-2" d="M90.37,194.46a13.76,13.76,0,0,0,4.35-4.85l2.17,1.14a16,16,0,0,1-4.76,5.56Zm12-16.9h9.18v2.12H90.9v-2.12h9v-2.23h2.46Zm6.86,4v7.26H102.7v6.25a2,2,0,0,1-.42,1.4,2.83,2.83,0,0,1-2,.52,31,31,0,0,1-3.2-.17l-.5-2.28a20,20,0,0,0,3.09.23c.28,0,.46-.07.52-.21a.71.71,0,0,0,0-.29v-5.45h-7v-7.26Zm-13.49,2v3.26h11v-3.26ZM109.83,196a34.25,34.25,0,0,0-4.44-5.31l1.79-1.42a37.58,37.58,0,0,1,4.61,5Z"/></g></g></svg>